<svg width="30" height="30" viewBox="0 0 30 30" fill="none" xmlns="http://www.w3.org/2000/svg">
<path fill-rule="evenodd" clip-rule="evenodd" d="M15 0.937744C8.269 0.937744 2.8125 6.39424 2.8125 13.1252C2.8125 17.4924 5.066 21.1659 7.51612 23.877C9.97394 26.5966 12.7202 28.4496 13.9146 29.1934C14.5846 29.6106 15.4154 29.6106 16.0854 29.1934C17.2798 28.4496 20.0261 26.5966 22.4839 23.877C24.934 21.1659 27.1875 17.4924 27.1875 13.1252C27.1875 6.39424 21.731 0.937744 15 0.937744ZM15.1404 18.5051C18.3922 18.5051 21.0283 15.8689 21.0283 12.6171C21.0283 9.36529 18.3922 6.72917 15.1404 6.72917C11.8886 6.72917 9.25244 9.36529 9.25244 12.6171C9.25244 15.8689 11.8886 18.5051 15.1404 18.5051Z" fill="#2D2D2D"/>
</svg>
