<svg width="30" height="30" viewBox="0 0 30 30" fill="none" xmlns="http://www.w3.org/2000/svg">
<path fill-rule="evenodd" clip-rule="evenodd" d="M18.3793 1C19.8337 1 21.1004 1.80396 21.7591 2.99171L22.0756 2.68888C23.5838 1.246 26.0292 1.246 27.5374 2.68888C29.0456 4.13176 29.0456 6.47114 27.5374 7.91402L26.7389 8.6779C28.0674 9.23772 29 10.552 29 12.0842C29 13.1877 28.5162 14.1782 27.7492 14.8552C28.5162 15.5322 29 16.5228 29 17.6263C29 19.2403 27.965 20.6126 26.5226 21.1158L27.5373 22.0865C29.0455 23.5294 29.0455 25.8688 27.5373 27.3117C26.0291 28.7546 23.5837 28.7546 22.0755 27.3117L21.7588 27.0087C21.1001 28.1962 19.8335 29 18.3793 29C17.0297 29 15.8419 28.3078 15.1513 27.259C14.4608 28.3078 13.2729 29 11.9234 29C10.4689 29 9.2023 28.196 8.5436 27.0083L8.22706 27.3111C6.71882 28.754 4.2735 28.754 2.76527 27.3111C1.25703 25.8682 1.25704 23.5289 2.76527 22.086L3.70502 21.1869C2.14507 20.7543 1 19.324 1 17.6263C1 16.5228 1.48378 15.5322 2.25083 14.8552C1.48378 14.1782 1 13.1877 1 12.0842C1 10.4703 2.0348 9.09804 3.4771 8.59479L2.76538 7.91391C1.25715 6.47103 1.25715 4.13166 2.76538 2.68878C4.27361 1.2459 6.71894 1.2459 8.22717 2.68878L8.3504 2.80667C9.03404 1.72122 10.2431 1 11.6207 1C13.0748 1 14.3412 1.80359 15 2.99089C15.6588 1.80359 16.9252 1 18.3793 1ZM12.5862 11.1379C12.5862 11.9378 11.9378 12.5862 11.1379 12.5862C10.3381 12.5862 9.68966 11.9378 9.68966 11.1379C9.68966 10.3381 10.3381 9.68966 11.1379 9.68966C11.9378 9.68966 12.5862 10.3381 12.5862 11.1379ZM11.1379 20.3105C11.9377 20.3105 12.5862 19.6621 12.5862 18.8623C12.5862 18.0624 11.9377 17.414 11.1379 17.414C10.338 17.414 9.68961 18.0624 9.68961 18.8623C9.68961 19.6621 10.338 20.3105 11.1379 20.3105ZM21.2758 11.1381C21.2758 11.938 20.6274 12.5864 19.8275 12.5864C19.0277 12.5864 18.3793 11.938 18.3793 11.1381C18.3793 10.3383 19.0277 9.68986 19.8275 9.68986C20.6274 9.68986 21.2758 10.3383 21.2758 11.1381ZM19.8275 20.3105C20.6274 20.3105 21.2758 19.6621 21.2758 18.8623C21.2758 18.0624 20.6274 17.414 19.8275 17.414C19.0277 17.414 18.3793 18.0624 18.3793 18.8623C18.3793 19.6621 19.0277 20.3105 19.8275 20.3105Z" fill="#2D2D2D"/>
</svg>
