<svg width="30" height="30" viewBox="0 0 30 30" fill="none" xmlns="http://www.w3.org/2000/svg">
<path d="M7.85031 19.3115C9.79406 20.9133 12.2847 21.8753 15.0001 21.8753C17.7154 21.8753 20.206 20.9133 22.1497 19.3116C23.9696 20.5408 25.3588 22.237 26.0619 24.2215C26.8369 26.4091 25.1775 28.2988 23.1747 28.5834C21.4391 28.8301 18.7961 29.0628 15 29.0628C11.2039 29.0628 8.56094 28.8301 6.82531 28.5834C4.82248 28.2988 3.16314 26.4091 3.93814 24.2215C4.64118 22.237 6.03038 20.5408 7.85031 19.3115Z" fill="#2D2D2D"/>
<path fill-rule="evenodd" clip-rule="evenodd" d="M15.0001 20.3126C9.89826 20.3126 5.71758 16.3688 5.34033 11.3635C5.63978 11.3918 5.94325 11.4063 6.25011 11.4063C10.1691 11.4063 13.5356 9.04116 15.0001 5.6604C16.4646 9.04116 19.8312 11.4063 23.7501 11.4063C24.057 11.4063 24.3605 11.3918 24.6599 11.3635C24.2826 16.3688 20.102 20.3126 15.0001 20.3126Z" fill="#2D2D2D"/>
<path d="M24.6523 9.79344C24.2538 5.10671 20.5184 1.37144 15.8317 0.9729C15.7984 1.26905 15.7812 1.57012 15.7812 1.87519C15.7812 6.27619 19.3489 9.84394 23.75 9.84394C24.0551 9.84394 24.3561 9.82681 24.6523 9.79344Z" fill="#2D2D2D"/>
<path d="M14.1682 0.9729C9.48147 1.37144 5.7462 5.10671 5.34766 9.79344C5.64381 9.82681 5.94488 9.84394 6.24995 9.84394C10.651 9.84394 14.2187 6.27619 14.2187 1.87519C14.2187 1.57012 14.2015 1.26905 14.1682 0.9729Z" fill="#2D2D2D"/>
</svg>
