<svg width="29" height="27" viewBox="0 0 29 27" fill="none" xmlns="http://www.w3.org/2000/svg">
<path d="M13.5919 1.96867C13.9494 1.19379 15.0506 1.19379 15.4081 1.96866L18.3565 8.36095C18.5022 8.67676 18.8015 8.8942 19.1468 8.93515L26.1374 9.76399C26.9848 9.86446 27.3251 10.9118 26.6986 11.4912L21.5303 16.2707C21.275 16.5068 21.1607 16.8587 21.2284 17.1998L22.6004 24.1043C22.7667 24.9413 21.8757 25.5886 21.1311 25.1718L14.9884 21.7334C14.685 21.5635 14.315 21.5635 14.0116 21.7334L7.8689 25.1718C7.12429 25.5886 6.23333 24.9413 6.39963 24.1043L7.77156 17.1998C7.83934 16.8587 7.72502 16.5068 7.46968 16.2707L2.30139 11.4912C1.67489 10.9118 2.0152 9.86446 2.8626 9.76399L9.85315 8.93515C10.1985 8.8942 10.4978 8.67676 10.6435 8.36095L13.5919 1.96867Z" fill="#FFD787" stroke="#2D2D2D" stroke-width="2"/>
</svg>
