<svg width="24" height="22" viewBox="0 0 24 22" fill="none" xmlns="http://www.w3.org/2000/svg">
<path d="M11.0919 1.96866C11.4494 1.19379 12.5506 1.19379 12.9081 1.96866L15.1512 6.83177C15.2969 7.14758 15.5961 7.36502 15.9415 7.40597L21.2598 8.03653C22.1072 8.137 22.4475 9.18439 21.821 9.76376L17.889 13.3999C17.6337 13.636 17.5194 13.9878 17.5872 14.329L18.6309 19.5818C18.7972 20.4187 17.9062 21.0661 17.1616 20.6493L12.4884 18.0334C12.185 17.8635 11.815 17.8635 11.5116 18.0334L6.83836 20.6493C6.09375 21.0661 5.20279 20.4187 5.3691 19.5818L6.41282 14.329C6.4806 13.9878 6.36629 13.636 6.11095 13.3999L2.17903 9.76376C1.55253 9.18439 1.89284 8.137 2.74024 8.03653L8.05849 7.40597C8.40386 7.36502 8.70314 7.14758 8.84881 6.83177L11.0919 1.96866Z" fill="#FFFCF8" stroke="#2D2D2D" stroke-width="2"/>
</svg>
