<svg width="40" height="40" viewBox="0 0 40 40" fill="none" xmlns="http://www.w3.org/2000/svg">
<g clip-path="url(#clip0_184_6758)">
<path opacity="0.53" d="M25.1835 33.8315H13.8167C13.2111 33.8315 12.7202 34.3173 12.7202 34.9165C12.7202 35.5157 13.2111 36.0015 13.8167 36.0015H25.1835C25.789 36.0015 26.2799 35.5157 26.2799 34.9165C26.2799 34.3173 25.789 33.8315 25.1835 33.8315Z" fill="#EAC69B"/>
<path d="M20.848 23.6714H18.1536C17.8439 23.6714 17.5928 23.9199 17.5928 24.2264V34.3615C17.5928 34.668 17.8439 34.9165 18.1536 34.9165H20.848C21.1578 34.9165 21.4088 34.668 21.4088 34.3615V24.2264C21.4088 23.9199 21.1578 23.6714 20.848 23.6714Z" fill="#A8713F"/>
<path d="M30.4508 15.3796C32.8848 22.6932 26.8922 28.6232 19.5012 26.2146C12.1088 28.6232 6.11612 22.6947 8.55017 15.3796C6.11612 8.0659 12.1088 2.1359 19.4997 4.54451C26.8907 2.1359 32.8834 8.0659 30.4493 15.3796H30.4508Z" fill="#A3E5B6"/>
<path opacity="0.54" d="M10.4031 12.3898C10.1708 12.3898 9.97544 12.2097 9.96064 11.9769C9.89849 10.9827 10.5495 10.0837 11.5084 9.84067C12.3873 9.61665 13.3328 10.0091 13.8063 10.7939C13.9321 11.0018 13.864 11.2712 13.6539 11.3971C13.4438 11.5216 13.1715 11.4542 13.0443 11.2463C12.7705 10.7939 12.229 10.5655 11.7288 10.6928C11.1814 10.8319 10.81 11.3503 10.8455 11.9242C10.8603 12.1658 10.6738 12.3752 10.4297 12.3898C10.4208 12.3898 10.4119 12.3898 10.4016 12.3898H10.4031Z" fill="#65B76F"/>
<path opacity="0.54" d="M17.3706 14.3358C17.1797 14.2025 17.125 13.9448 17.2492 13.7457C17.7775 12.8979 18.834 12.5348 19.7588 12.8833C20.6081 13.2025 21.1511 14.062 21.0816 14.9727C21.0638 15.2143 20.8508 15.3958 20.6051 15.3783C20.361 15.3607 20.1775 15.1498 20.1953 14.9068C20.2352 14.3811 19.926 13.8862 19.4421 13.7047C18.9139 13.5056 18.3087 13.7179 18.0039 14.2084C17.8751 14.4148 17.6014 14.4792 17.3928 14.3519C17.3854 14.3475 17.3765 14.3416 17.3691 14.3372L17.3706 14.3358Z" fill="#65B76F"/>
<path opacity="0.54" d="M27.2047 11.8744C27.1943 11.8744 27.1825 11.8744 27.1721 11.8744C26.928 11.8569 26.743 11.646 26.7608 11.4044C26.7992 10.8773 26.4885 10.3839 26.0047 10.2038C25.4764 10.0061 24.8712 10.2199 24.5679 10.7104C24.4392 10.9169 24.1669 10.9813 23.9568 10.8554C23.7482 10.728 23.6816 10.4586 23.8103 10.2506C24.3371 9.40141 25.3906 9.03536 26.3169 9.38091C27.1662 9.69718 27.7122 10.5552 27.6456 11.4674C27.6293 11.6987 27.434 11.8744 27.2032 11.8744H27.2047Z" fill="#65B76F"/>
<path opacity="0.54" d="M13.8047 17.9113C13.8151 17.9143 13.8255 17.9187 13.8343 17.923C14.0592 18.0211 14.1599 18.2803 14.0607 18.5029C13.8447 18.9861 13.9705 19.5542 14.3641 19.8851C14.7946 20.2467 15.4368 20.2482 15.8896 19.8865C16.0805 19.7343 16.3601 19.765 16.514 19.9539C16.6679 20.1428 16.6368 20.4195 16.446 20.5718C15.6617 21.1955 14.5446 21.1882 13.7899 20.5542C13.0989 19.9729 12.8755 18.9831 13.2499 18.1471C13.3446 17.9348 13.5887 17.8337 13.8047 17.9113Z" fill="#65B76F"/>
<path opacity="0.54" d="M21.2342 21.4444C21.2416 21.4371 21.2504 21.4298 21.2593 21.4239C21.4532 21.2746 21.7313 21.3097 21.8823 21.5001C22.2107 21.9159 22.776 22.077 23.2569 21.8896C23.7822 21.686 24.087 21.1267 23.9804 20.5601C23.936 20.3214 24.0944 20.093 24.3355 20.0476C24.5767 20.0037 24.809 20.1603 24.8534 20.399C25.0369 21.3786 24.5028 22.3493 23.5809 22.7066C22.736 23.0346 21.7491 22.7593 21.1824 22.0389C21.0388 21.8559 21.064 21.5953 21.2342 21.443V21.4444Z" fill="#65B76F"/>
</g>
<defs>
<clipPath id="clip0_184_6758">
<rect width="23" height="32" fill="white" transform="translate(8 4)"/>
</clipPath>
</defs>
</svg>
