<svg width="40" height="40" viewBox="0 0 40 40" fill="none" xmlns="http://www.w3.org/2000/svg">
<g clip-path="url(#clip0_184_6741)">
<path d="M18.3844 12.6108C18.5124 13.0029 18.6547 13.3886 18.8016 13.7728C18.8064 13.7856 18.8095 13.7952 18.8143 13.8064C18.8237 13.8288 18.8332 13.8496 18.8411 13.8672C18.8933 13.9856 18.9454 14.104 18.9991 14.2209C19.3104 14.8946 19.6565 15.5508 20.0357 16.1894C20.3739 16.7575 20.7421 17.3033 21.1213 17.8442C21.1529 17.8906 21.1782 17.9259 21.1988 17.9563C21.2746 18.0539 21.3505 18.1499 21.4279 18.2459C21.6349 18.502 21.8482 18.7549 22.0663 19.0013C22.9054 19.952 23.8266 20.8386 24.8174 21.626C24.8459 21.6468 24.8869 21.6757 24.9423 21.7157C25.0876 21.8197 25.2298 21.9269 25.3768 22.0294C25.6691 22.2342 25.9646 22.4327 26.2649 22.6247C26.8274 22.9832 27.4058 23.3161 27.9952 23.6266C28.3492 23.8122 28.7079 23.9899 29.0697 24.1579C29.2119 24.2235 29.3542 24.2876 29.4964 24.35C29.5296 24.3628 29.5675 24.3772 29.6133 24.3964C30.2343 24.6396 30.8601 24.8685 31.4969 25.0686C31.7892 25.1598 32.0816 25.2462 32.3755 25.3262V13.2718C32.3755 11.7322 31.1429 10.4855 29.6244 10.4855H17.8203C17.8266 10.5191 17.833 10.5527 17.8393 10.5847C17.9847 11.2697 18.1664 11.9451 18.3829 12.6108H18.3844Z" fill="#EAC69B"/>
<path d="M18.8407 13.8656C18.8328 13.8464 18.8233 13.8272 18.8154 13.808C18.8865 13.9904 18.9008 14.0016 18.8407 13.8656Z" fill="#EAC69B"/>
<path d="M13.4034 15.474C12.7903 13.8688 12.3462 12.1963 12.0839 10.4871H10.3742C9.24432 10.4871 8.27408 11.1784 7.85059 12.1659C9.4608 13.0541 11.041 14 12.6038 14.9747C12.8709 15.1411 13.1379 15.3075 13.4034 15.4756V15.474Z" fill="#EAC69B"/>
<path d="M18.7969 13.7679C18.8032 13.7807 18.8079 13.7936 18.8143 13.8064C18.8143 13.8064 18.8143 13.8064 18.8143 13.8048C18.8079 13.792 18.8048 13.7823 18.7969 13.7679Z" fill="#EAC69B"/>
<path d="M35 28.7367V11.2633C35 9.46279 33.5541 8 31.778 8H8.22202C6.44588 8 5 9.46439 5 11.2633V28.7351C5 30.5356 6.44588 31.9984 8.22202 31.9984H31.7764C33.5541 31.9984 34.9984 30.534 34.9984 28.7351L35 28.7367ZM10.3758 10.4855H29.6258C31.1459 10.4855 32.3769 11.7338 32.3769 13.2718V26.9827C32.3769 28.5223 31.1443 29.769 29.6258 29.769H10.3758C8.85568 29.769 7.6247 28.5207 7.6247 26.9827V13.2718C7.6247 12.8781 7.70687 12.5036 7.85225 12.1643C8.27574 11.1768 9.24598 10.4855 10.3758 10.4855Z" fill="#EAC69B"/>
<path d="M18.8408 13.8656C18.8329 13.848 18.8234 13.8272 18.814 13.8047C18.814 13.8047 18.814 13.8047 18.814 13.8063C18.8234 13.8256 18.8313 13.8448 18.8392 13.864L18.8408 13.8656Z" fill="#EFE5DA"/>
<path d="M29.6241 10.4855H10.3742C8.85476 10.4855 7.62305 11.733 7.62305 13.2718V26.9827C7.62305 28.5215 8.85476 29.769 10.3742 29.769H29.6241C31.1435 29.769 32.3752 28.5215 32.3752 26.9827V13.2718C32.3752 11.733 31.1435 10.4855 29.6241 10.4855Z" fill="#FCF6F0"/>
<path d="M7.62316 26.9827C7.62316 28.5223 8.85571 29.769 10.3743 29.769H27.6806C24.9974 28.6679 22.4786 27.1587 20.241 25.2398C17.1786 22.6119 14.8336 19.2254 13.4019 15.4724C13.1349 15.306 12.8694 15.1379 12.6024 14.9715C11.0395 13.9968 9.45935 13.051 7.84913 12.1627C7.70375 12.502 7.62158 12.8765 7.62158 13.2702V26.9811L7.62316 26.9827Z" fill="#ED9451"/>
<path d="M29.6133 24.3932C29.5675 24.3756 29.5296 24.3612 29.4964 24.3468C29.3542 24.2843 29.212 24.2203 29.0698 24.1547C28.7079 23.9867 28.3492 23.809 27.9952 23.6234C27.4058 23.3129 26.8275 22.98 26.2649 22.6215C25.9647 22.4294 25.6676 22.231 25.3768 22.0261C25.2315 21.9237 25.0877 21.8165 24.9423 21.7125C24.887 21.6724 24.8459 21.642 24.8175 21.6228C23.8267 20.8338 22.9054 19.9488 22.0663 18.9981C21.8483 18.7501 21.6349 18.4988 21.4279 18.2427C21.3505 18.1467 21.2747 18.0507 21.1988 17.953C21.1783 17.9226 21.153 17.8874 21.1214 17.841C20.7421 17.3001 20.3739 16.7543 20.0358 16.1862C19.6581 15.5492 19.3121 14.8914 18.9992 14.2177C18.9454 14.1008 18.8933 13.9824 18.8412 13.864C18.8996 14 18.887 13.9888 18.8159 13.8063C18.8096 13.7935 18.8048 13.7807 18.7985 13.7679C18.8048 13.7823 18.8096 13.7919 18.8159 13.8047C18.8111 13.7935 18.808 13.7839 18.8032 13.7711C18.6563 13.387 18.5141 13.0013 18.3861 12.6092C18.1696 11.945 17.9878 11.2681 17.8425 10.5831C17.8362 10.5495 17.8298 10.5175 17.8235 10.4839H12.0874C12.3481 12.1931 12.7937 13.8656 13.4069 15.4708C14.8385 19.2238 17.1835 22.6103 20.2459 25.2382C22.4835 27.1571 25.0008 28.6663 27.6855 29.7674H29.6276C31.1477 29.7674 32.3787 28.5191 32.3787 26.9811V25.3214C32.0848 25.2398 31.7909 25.155 31.5001 25.0637C30.8633 24.8637 30.2391 24.6348 29.6165 24.3916L29.6133 24.3932Z" fill="#A3D8BC"/>
</g>
<defs>
<clipPath id="clip0_184_6741">
<rect width="30" height="24" fill="white" transform="translate(5 8)"/>
</clipPath>
</defs>
</svg>
