<svg width="40" height="40" viewBox="0 0 40 40" fill="none" xmlns="http://www.w3.org/2000/svg">
<rect width="40" height="40" fill="white"/>
<g clip-path="url(#clip0_317_5075)">
<path d="M30.8366 11.3471H9.16256C8.26107 11.3471 7.53027 12.0713 7.53027 12.9647V31.3811C7.53027 32.2745 8.26107 32.9987 9.16256 32.9987H30.8366C31.738 32.9987 32.4688 32.2745 32.4688 31.3811V12.9647C32.4688 12.0713 31.738 11.3471 30.8366 11.3471Z" fill="#ECE9E3"/>
<path d="M33.8234 8H6.1766C5.52913 8 5 8.46776 5 9.03931V16.6622C5 18.1235 6.35343 19.3192 8.00884 19.3192C9.54319 19.3192 10.8191 18.2906 10.9959 16.9763C11.1728 18.2906 12.4487 19.3192 13.983 19.3192C15.6384 19.3192 16.9918 18.1235 16.9918 16.6622C16.9918 18.1235 18.3453 19.3192 20.0007 19.3192C21.535 19.3192 22.8109 18.2906 22.9878 16.9763C23.1646 18.2906 24.4405 19.3192 25.9748 19.3192C27.6302 19.3192 28.9837 18.1235 28.9837 16.6622C28.9837 18.1235 30.3371 19.3192 31.9925 19.3192C33.6479 19.3192 35.0014 18.1235 35.0014 16.6622V9.03931C35.0014 8.46776 34.4722 8 33.8248 8H33.8234Z" fill="#C2B4D3"/>
<path d="M17.7465 24.478H22.253C23.1535 24.478 23.8853 25.2032 23.8853 26.0956V32.8895H16.1143V26.0956C16.1143 25.2032 16.8461 24.478 17.7465 24.478Z" fill="#C6C3BD"/>
<path opacity="0.7" d="M10.6937 16.491C10.4679 16.491 10.2856 16.3104 10.2856 16.0866V12.5765C10.2856 12.3527 10.4679 12.1721 10.6937 12.1721C10.9195 12.1721 11.1018 12.3527 11.1018 12.5765V16.0866C11.1018 16.3104 10.9195 16.491 10.6937 16.491Z" fill="#DCD7E2"/>
<path opacity="0.7" d="M16.7865 16.491C16.5607 16.491 16.3784 16.3104 16.3784 16.0866V12.5765C16.3784 12.3527 16.5607 12.1721 16.7865 12.1721C17.0123 12.1721 17.1946 12.3527 17.1946 12.5765V16.0866C17.1946 16.3104 17.0123 16.491 16.7865 16.491Z" fill="#DCD7E2"/>
<path opacity="0.7" d="M22.9891 16.491C22.7633 16.491 22.5811 16.3104 22.5811 16.0866V12.5765C22.5811 12.3527 22.7633 12.1721 22.9891 12.1721C23.2149 12.1721 23.3972 12.3527 23.3972 12.5765V16.0866C23.3972 16.3104 23.2149 16.491 22.9891 16.491Z" fill="#DCD7E2"/>
<path opacity="0.7" d="M28.9442 16.491C28.7184 16.491 28.5361 16.3104 28.5361 16.0866V12.5765C28.5361 12.3527 28.7184 12.1721 28.9442 12.1721C29.17 12.1721 29.3523 12.3527 29.3523 12.5765V16.0866C29.3523 16.3104 29.17 16.491 28.9442 16.491Z" fill="#DCD7E2"/>
</g>
<defs>
<clipPath id="clip0_317_5075">
<rect width="30" height="25" fill="white" transform="translate(5 8)"/>
</clipPath>
</defs>
</svg>
