<svg width="40" height="40" viewBox="0 0 40 40" fill="none" xmlns="http://www.w3.org/2000/svg">
<g clip-path="url(#clip0_184_6724)">
<path d="M31.1385 25.0438C30.1523 25.0438 29.1347 24.8166 28.1627 24.3549L27.2065 23.9004L29.7378 13.97L30.5582 13.827C31.27 13.7027 33.7298 13.4283 35.4693 15.0905C36.5255 16.101 37.0801 17.6331 36.9915 19.2954C36.8929 21.1277 36.0281 22.8399 34.6803 23.8761C33.6741 24.6479 32.4349 25.041 31.14 25.041L31.1385 25.0438ZM30.2524 22.3683C31.3072 22.5969 32.362 22.4154 33.1124 21.838C33.8628 21.262 34.3644 20.2358 34.423 19.1582C34.4716 18.2463 34.2058 17.4416 33.6927 16.9514C33.1524 16.4354 32.3849 16.3097 31.8003 16.3025L30.2538 22.3683H30.2524Z" fill="#DDD9D0"/>
<path d="M31.9288 14.3959H18.0647C18.0647 14.4031 18.0647 14.4102 18.0647 14.4173C13.4666 14.4173 7.65656 14.3959 3.05852 14.3959C2.85699 15.4636 2.94132 22.0367 7.18489 27.0348C7.92383 27.9052 9.79192 30.0491 13.0907 31.1124C15.7078 31.9128 18.522 31.9385 21.212 31.5526C21.8652 31.4512 22.4797 31.2882 23.1086 31.091C26.406 30.0276 28.2741 27.8838 29.0145 27.0133C33.258 22.0152 32.1289 15.4636 31.9274 14.3959H31.9288Z" fill="#DDD9D0"/>
<path d="M17.4944 20.9747C25.4671 20.9747 31.9303 18.0703 31.9303 14.4874C31.9303 10.9045 25.4671 8 17.4944 8C9.52174 8 3.05859 10.9045 3.05859 14.4874C3.05859 18.0703 9.52174 20.9747 17.4944 20.9747Z" fill="#ECE9E3"/>
<path d="M17.4945 19.8885C24.1324 19.8885 29.5134 17.4704 29.5134 14.4874C29.5134 11.5044 24.1324 9.08624 17.4945 9.08624C10.8566 9.08624 5.47559 11.5044 5.47559 14.4874C5.47559 17.4704 10.8566 19.8885 17.4945 19.8885Z" fill="#D8D0C3"/>
<path d="M29.2032 15.7137C27.9683 18.1062 23.1959 19.8899 17.4959 19.8899C11.7959 19.8899 7.02345 18.1062 5.78711 15.7137C7.02345 13.3211 11.7959 11.5374 17.4959 11.5374C23.1959 11.5374 27.9683 13.3211 29.2032 15.7137Z" fill="#7C5D46"/>
<path opacity="0.42" d="M8.94305 15.9524C8.7944 15.9524 8.65147 15.8752 8.57143 15.738C8.4528 15.5336 8.52284 15.2706 8.72722 15.152C10.4995 14.1258 13.3853 12.8909 17.0614 12.8423C19.5027 12.8094 21.9896 13.3225 24.2408 14.3273C24.4566 14.4231 24.5538 14.6775 24.458 14.8933C24.3608 15.1091 24.1078 15.2063 23.892 15.1105C21.7538 14.1558 19.3997 13.6698 17.0729 13.6999C13.5811 13.747 10.8411 14.919 9.15744 15.8952C9.09026 15.9338 9.01594 15.9538 8.94305 15.9538V15.9524Z" fill="#EAC69B"/>
</g>
<defs>
<clipPath id="clip0_184_6724">
<rect width="34" height="33" fill="white" transform="translate(3 3)"/>
</clipPath>
</defs>
</svg>
