<svg width="42" height="42" viewBox="0 0 42 42" fill="none" xmlns="http://www.w3.org/2000/svg">
<circle cx="21" cy="21" r="20" fill="#FFD787" stroke="#2D2D2D" stroke-width="2"/>
<path d="M20.0919 7.96867C20.4494 7.1938 21.5506 7.19379 21.9081 7.96866L24.9976 14.6668C25.1433 14.9826 25.4426 15.2 25.7879 15.241L33.1129 16.1095C33.9603 16.21 34.3006 17.2573 33.6741 17.8367L28.2586 22.8449C28.0032 23.081 27.8889 23.4328 27.9567 23.7739L29.3943 31.0088C29.5606 31.8458 28.6696 32.4931 27.925 32.0763L21.4884 28.4734C21.185 28.3035 20.815 28.3035 20.5116 28.4734L14.075 32.0763C13.3304 32.4931 12.4394 31.8458 12.6057 31.0088L14.0433 23.7739C14.1111 23.4328 13.9968 23.081 13.7414 22.8449L8.32586 17.8367C7.69936 17.2573 8.03967 16.21 8.88707 16.1095L16.2121 15.241C16.5574 15.2 16.8567 14.9826 17.0024 14.6668L20.0919 7.96867Z" fill="#FFFCF8" stroke="#2D2D2D" stroke-width="2"/>
</svg>
