<svg width="27" height="29" viewBox="0 0 27 29" fill="none" xmlns="http://www.w3.org/2000/svg">
<path d="M1.89062 12.4985C1.89062 6.18027 7.10673 1.0918 13.5002 1.0918C19.8937 1.0918 25.1098 6.18027 25.1098 12.4985C25.1098 16.1859 22.8577 19.6245 20.528 22.2229C18.1681 24.8549 15.5598 26.8102 14.525 27.5446C13.9032 27.9868 13.0649 27.9708 12.4605 27.5095L1.89062 12.4985ZM1.89062 12.4985C1.89062 15.9346 4.16623 19.3522 6.4814 21.9786M1.89062 12.4985L6.4814 21.9786M6.4814 21.9786C8.83855 24.6527 11.4408 26.7315 12.4602 27.5092L6.4814 21.9786Z" fill="#ECE9E3" stroke="#3D3D3D" stroke-width="2"/>
<circle cx="13.6801" cy="13.7544" r="5.75435" fill="white" stroke="#3D3D3D" stroke-width="2"/>
</svg>
