<svg width="114" height="25" viewBox="0 0 114 25" fill="none" xmlns="http://www.w3.org/2000/svg">
<path d="M19.2427 2.62182C19.2427 1.79202 19.5047 1.1476 20.0287 0.68856C20.5526 0.22952 21.1941 0 21.9529 0C22.7118 0 23.3532 0.22952 23.8772 0.68856C24.4012 1.1476 24.6632 1.79202 24.6632 2.62182V13.7447H19.2427V7.38877H17.2913C16.5686 7.38877 15.9904 7.19456 15.5568 6.80614C15.1412 6.40007 14.9334 5.87041 14.9334 5.21716C14.9334 4.56391 15.1412 4.03425 15.5568 3.62818C15.9904 3.20445 16.5686 2.99258 17.2913 2.99258H19.2427V2.62182ZM1.70745 19.7564C1.70745 18.2027 2.21336 16.9492 3.22518 15.9958C4.25507 15.0424 5.73667 14.5657 7.66997 14.5657H18.9988C20.914 14.5657 22.3866 15.0424 23.4165 15.9958C24.4463 16.9315 24.9613 18.185 24.9613 19.7564C24.9613 21.3277 24.4463 22.5812 23.4165 23.5169C22.3866 24.4703 20.914 24.947 18.9988 24.947H7.66997C5.73667 24.947 4.25507 24.4703 3.22518 23.5169C2.21336 22.5636 1.70745 21.31 1.70745 19.7564ZM7.20923 19.7564C7.20923 20.1624 7.34474 20.4979 7.61577 20.7627C7.88679 21.0275 8.29333 21.16 8.83537 21.16H17.8334C18.3754 21.16 18.7819 21.0275 19.053 20.7627C19.324 20.4979 19.4595 20.1624 19.4595 19.7564C19.4595 19.3503 19.324 19.0148 19.053 18.75C18.7819 18.4675 18.3754 18.3263 17.8334 18.3263H8.83537C8.29333 18.3263 7.88679 18.4675 7.61577 18.75C7.34474 19.0148 7.20923 19.3503 7.20923 19.7564ZM1.68035 9.40148C2.92706 8.92479 3.85757 8.2274 4.47189 7.30932C5.08621 6.39124 5.42048 5.11123 5.47468 3.46928L5.50178 2.51589C5.53792 1.82733 5.80894 1.28001 6.31485 0.87394C6.82076 0.467867 7.44412 0.26483 8.18492 0.26483C8.96185 0.26483 9.60328 0.485522 10.1092 0.926906C10.6151 1.35064 10.8681 1.92444 10.8681 2.64831V3.54873C10.8681 4.13136 10.8229 4.74929 10.7325 5.40254C12.7381 5.61441 14.2649 6.39124 15.3128 7.73305C16.3789 9.0572 16.8577 10.9463 16.7493 13.4004H11.5456C11.5637 13.2768 11.5727 13.0826 11.5727 12.8178C11.5727 11.8291 11.374 11.0523 10.9765 10.4873C10.597 9.90466 10.0369 9.5339 9.29611 9.375C8.44691 10.7345 7.38088 11.8026 6.09803 12.5794C4.83326 13.3563 3.61365 13.7447 2.43921 13.7447C1.69842 13.7447 1.10216 13.5505 0.650457 13.1621C0.216819 12.7737 0 12.2175 0 11.4936C0 10.9993 0.144546 10.5756 0.433638 10.2225C0.72273 9.8517 1.1383 9.57804 1.68035 9.40148Z" fill="#FEAD97"/>
<path d="M50.2478 14.9629C51.0067 14.9629 51.5758 15.1748 51.9552 15.5985C52.3347 16.0222 52.5244 16.5343 52.5244 17.1345C52.5244 17.7525 52.3347 18.2733 51.9552 18.697C51.5758 19.1031 51.0067 19.3061 50.2478 19.3061H42.6049V25H37.076V19.3061H29.4332C28.6743 19.3061 28.1052 19.1031 27.7257 18.697C27.3463 18.2733 27.1566 17.7525 27.1566 17.1345C27.1566 16.5343 27.3463 16.0222 27.7257 15.5985C28.1052 15.1748 28.6743 14.9629 29.4332 14.9629H50.2478ZM42.5507 2.86017C42.5507 3.42514 42.4694 4.06956 42.3068 4.79343C43.8968 4.81109 45.3784 5.15537 46.7516 5.82627C48.1428 6.49718 49.2992 7.51236 50.2207 8.87182C51.1603 10.2136 51.7294 11.8732 51.9282 13.8506H46.4264C46.1373 12.2793 45.4236 11.0523 44.2853 10.1695C43.147 9.26907 41.7738 8.85417 40.1657 8.92479C38.9551 10.4255 37.4645 11.6261 35.6938 12.5265C33.9231 13.4269 32.1344 13.8771 30.3276 13.8771C29.5326 13.8771 28.8821 13.6741 28.3762 13.268C27.8883 12.8443 27.6444 12.2793 27.6444 11.5731C27.6444 10.9905 27.8251 10.5049 28.1865 10.1165C28.5659 9.71045 29.0808 9.45445 29.7313 9.34852C30.9238 9.17196 32.035 8.78355 33.0649 8.18326C34.0948 7.56532 34.953 6.76201 35.6396 5.7733C36.3443 4.7846 36.787 3.67232 36.9676 2.43644C37.0941 1.69492 37.4103 1.13877 37.9162 0.768008C38.4402 0.37959 39.0816 0.185381 39.8405 0.185381C40.6536 0.185381 41.304 0.423728 41.7919 0.900423C42.2978 1.35946 42.5507 2.01271 42.5507 2.86017Z" fill="#FEAD97"/>
<path d="M77.2763 3.07203C77.2763 3.74294 77.1588 4.5904 76.924 5.61441C78.514 5.64972 80.0136 6.03814 81.4229 6.77966C82.8503 7.52119 84.0428 8.63348 85.0005 10.1165C85.9581 11.5996 86.5182 13.4181 86.6808 15.572H81.179C81.0164 14.4068 80.637 13.3916 80.0407 12.5265C79.4445 11.6614 78.6856 11.0081 77.7641 10.5667C76.8607 10.1077 75.876 9.88701 74.81 9.90466C73.5632 11.5996 72.0365 12.9679 70.2297 14.0095C68.4228 15.0512 66.6341 15.572 64.8634 15.572C64.1226 15.572 63.4992 15.3602 62.9933 14.9364C62.5055 14.5127 62.2616 13.9389 62.2616 13.215C62.2616 12.6501 62.4332 12.1645 62.7765 11.7585C63.1198 11.3347 63.6076 11.0611 64.24 10.9375C65.4506 10.6727 66.5889 10.1783 67.6549 9.45445C68.721 8.71292 69.6063 7.76836 70.311 6.62076C71.0337 5.47316 71.4854 4.18432 71.6661 2.75424C71.7745 1.95975 72.0817 1.36829 72.5876 0.979873C73.1115 0.573799 73.762 0.370763 74.5389 0.370763C75.352 0.370763 76.0115 0.617938 76.5174 1.11229C77.0233 1.58898 77.2763 2.24223 77.2763 3.07203ZM84.892 19.8623C85.669 19.8623 86.2472 20.083 86.6266 20.5244C87.0241 20.9657 87.2229 21.4954 87.2229 22.1133C87.2229 22.7313 87.0241 23.2521 86.6266 23.6758C86.2472 24.1172 85.669 24.3379 84.892 24.3379H64.1858C63.4089 24.3379 62.8217 24.1172 62.4242 23.6758C62.0447 23.2521 61.855 22.7313 61.855 22.1133C61.855 21.4954 62.0447 20.9657 62.4242 20.5244C62.8217 20.083 63.4089 19.8623 64.1858 19.8623H84.892Z" fill="#FEAD97"/>
<path d="M109.23 2.27754C109.23 1.58898 109.447 1.04167 109.88 0.635593C110.314 0.211864 110.892 0 111.615 0C112.338 0 112.907 0.211864 113.322 0.635593C113.756 1.04167 113.973 1.58898 113.973 2.27754V14.5392H109.23V9.375H107.875V14.5392H103.267V2.22458C103.267 1.55367 103.475 1.01518 103.891 0.60911C104.306 0.203037 104.867 0 105.571 0C106.276 0 106.836 0.203037 107.252 0.60911C107.667 1.01518 107.875 1.55367 107.875 2.22458V5.24364H109.23V2.27754ZM92.7788 19.7564C92.038 19.7564 91.4599 19.571 91.0443 19.2002C90.6468 18.8295 90.448 18.3263 90.448 17.6907C90.448 17.0551 90.6468 16.5519 91.0443 16.1811C91.4599 15.8104 92.038 15.625 92.7788 15.625H109.989C111.127 15.625 111.976 15.7486 112.536 15.9958C113.097 16.2253 113.476 16.6225 113.675 17.1875C113.892 17.7525 114 18.5911 114 19.7034V24.8676H108.525V20.3919C108.525 19.9682 108.309 19.7564 107.875 19.7564H92.7788ZM100.205 9.61335C100.928 9.61335 101.443 9.81638 101.75 10.2225C102.057 10.6285 102.21 11.1229 102.21 11.7055C102.21 12.3058 102.057 12.8178 101.75 13.2415C101.443 13.6653 100.928 13.8771 100.205 13.8771H92.6975C90.6016 13.8771 89.5536 12.8796 89.5536 10.8845V3.20445C89.5536 2.42761 89.7976 1.83616 90.2854 1.43009C90.7733 1.00636 91.4057 0.794491 92.1826 0.794491C92.9415 0.794491 93.5558 0.997527 94.0255 1.4036C94.4953 1.80967 94.7302 2.38347 94.7302 3.125V9.03072C94.7302 9.26024 94.7754 9.41914 94.8657 9.50742C94.9561 9.57804 95.1187 9.61335 95.3536 9.61335H100.205Z" fill="#FEAD97"/>
<path d="M19.2427 2.62182C19.2427 1.79202 19.5047 1.1476 20.0287 0.68856C20.5526 0.22952 21.1941 0 21.9529 0C22.7118 0 23.3532 0.22952 23.8772 0.68856C24.4012 1.1476 24.6632 1.79202 24.6632 2.62182V13.7447H19.2427V7.38877H17.2913C16.5686 7.38877 15.9904 7.19456 15.5568 6.80614C15.1412 6.40007 14.9334 5.87041 14.9334 5.21716C14.9334 4.56391 15.1412 4.03425 15.5568 3.62818C15.9904 3.20445 16.5686 2.99258 17.2913 2.99258H19.2427V2.62182ZM1.70745 19.7564C1.70745 18.2027 2.21336 16.9492 3.22518 15.9958C4.25507 15.0424 5.73667 14.5657 7.66997 14.5657H18.9988C20.914 14.5657 22.3866 15.0424 23.4165 15.9958C24.4463 16.9315 24.9613 18.185 24.9613 19.7564C24.9613 21.3277 24.4463 22.5812 23.4165 23.5169C22.3866 24.4703 20.914 24.947 18.9988 24.947H7.66997C5.73667 24.947 4.25507 24.4703 3.22518 23.5169C2.21336 22.5636 1.70745 21.31 1.70745 19.7564ZM7.20923 19.7564C7.20923 20.1624 7.34474 20.4979 7.61577 20.7627C7.88679 21.0275 8.29333 21.16 8.83537 21.16H17.8334C18.3754 21.16 18.7819 21.0275 19.053 20.7627C19.324 20.4979 19.4595 20.1624 19.4595 19.7564C19.4595 19.3503 19.324 19.0148 19.053 18.75C18.7819 18.4675 18.3754 18.3263 17.8334 18.3263H8.83537C8.29333 18.3263 7.88679 18.4675 7.61577 18.75C7.34474 19.0148 7.20923 19.3503 7.20923 19.7564ZM1.68035 9.40148C2.92706 8.92479 3.85757 8.2274 4.47189 7.30932C5.08621 6.39124 5.42048 5.11123 5.47468 3.46928L5.50178 2.51589C5.53792 1.82733 5.80894 1.28001 6.31485 0.87394C6.82076 0.467867 7.44412 0.26483 8.18492 0.26483C8.96185 0.26483 9.60328 0.485522 10.1092 0.926906C10.6151 1.35064 10.8681 1.92444 10.8681 2.64831V3.54873C10.8681 4.13136 10.8229 4.74929 10.7325 5.40254C12.7381 5.61441 14.2649 6.39124 15.3128 7.73305C16.3789 9.0572 16.8577 10.9463 16.7493 13.4004H11.5456C11.5637 13.2768 11.5727 13.0826 11.5727 12.8178C11.5727 11.8291 11.374 11.0523 10.9765 10.4873C10.597 9.90466 10.0369 9.5339 9.29611 9.375C8.44691 10.7345 7.38088 11.8026 6.09803 12.5794C4.83326 13.3563 3.61365 13.7447 2.43921 13.7447C1.69842 13.7447 1.10216 13.5505 0.650457 13.1621C0.216819 12.7737 0 12.2175 0 11.4936C0 10.9993 0.144546 10.5756 0.433638 10.2225C0.72273 9.8517 1.1383 9.57804 1.68035 9.40148Z" stroke="#1D1D1D"/>
<path d="M50.2478 14.9629C51.0067 14.9629 51.5758 15.1748 51.9552 15.5985C52.3347 16.0222 52.5244 16.5343 52.5244 17.1345C52.5244 17.7525 52.3347 18.2733 51.9552 18.697C51.5758 19.1031 51.0067 19.3061 50.2478 19.3061H42.6049V25H37.076V19.3061H29.4332C28.6743 19.3061 28.1052 19.1031 27.7257 18.697C27.3463 18.2733 27.1566 17.7525 27.1566 17.1345C27.1566 16.5343 27.3463 16.0222 27.7257 15.5985C28.1052 15.1748 28.6743 14.9629 29.4332 14.9629H50.2478ZM42.5507 2.86017C42.5507 3.42514 42.4694 4.06956 42.3068 4.79343C43.8968 4.81109 45.3784 5.15537 46.7516 5.82627C48.1428 6.49718 49.2992 7.51236 50.2207 8.87182C51.1603 10.2136 51.7294 11.8732 51.9282 13.8506H46.4264C46.1373 12.2793 45.4236 11.0523 44.2853 10.1695C43.147 9.26907 41.7738 8.85417 40.1657 8.92479C38.9551 10.4255 37.4645 11.6261 35.6938 12.5265C33.9231 13.4269 32.1344 13.8771 30.3276 13.8771C29.5326 13.8771 28.8821 13.6741 28.3762 13.268C27.8883 12.8443 27.6444 12.2793 27.6444 11.5731C27.6444 10.9905 27.8251 10.5049 28.1865 10.1165C28.5659 9.71045 29.0808 9.45445 29.7313 9.34852C30.9238 9.17196 32.035 8.78355 33.0649 8.18326C34.0948 7.56532 34.953 6.76201 35.6396 5.7733C36.3443 4.7846 36.787 3.67232 36.9676 2.43644C37.0941 1.69492 37.4103 1.13877 37.9162 0.768008C38.4402 0.37959 39.0816 0.185381 39.8405 0.185381C40.6536 0.185381 41.304 0.423728 41.7919 0.900423C42.2978 1.35946 42.5507 2.01271 42.5507 2.86017Z" stroke="#1D1D1D"/>
<path d="M77.2763 3.07203C77.2763 3.74294 77.1588 4.5904 76.924 5.61441C78.514 5.64972 80.0136 6.03814 81.4229 6.77966C82.8503 7.52119 84.0428 8.63348 85.0005 10.1165C85.9581 11.5996 86.5182 13.4181 86.6808 15.572H81.179C81.0164 14.4068 80.637 13.3916 80.0407 12.5265C79.4445 11.6614 78.6856 11.0081 77.7641 10.5667C76.8607 10.1077 75.876 9.88701 74.81 9.90466C73.5632 11.5996 72.0365 12.9679 70.2297 14.0095C68.4228 15.0512 66.6341 15.572 64.8634 15.572C64.1226 15.572 63.4992 15.3602 62.9933 14.9364C62.5055 14.5127 62.2616 13.9389 62.2616 13.215C62.2616 12.6501 62.4332 12.1645 62.7765 11.7585C63.1198 11.3347 63.6076 11.0611 64.24 10.9375C65.4506 10.6727 66.5889 10.1783 67.6549 9.45445C68.721 8.71292 69.6063 7.76836 70.311 6.62076C71.0337 5.47316 71.4854 4.18432 71.6661 2.75424C71.7745 1.95975 72.0817 1.36829 72.5876 0.979873C73.1115 0.573799 73.762 0.370763 74.5389 0.370763C75.352 0.370763 76.0115 0.617938 76.5174 1.11229C77.0233 1.58898 77.2763 2.24223 77.2763 3.07203ZM84.892 19.8623C85.669 19.8623 86.2472 20.083 86.6266 20.5244C87.0241 20.9657 87.2229 21.4954 87.2229 22.1133C87.2229 22.7313 87.0241 23.2521 86.6266 23.6758C86.2472 24.1172 85.669 24.3379 84.892 24.3379H64.1858C63.4089 24.3379 62.8217 24.1172 62.4242 23.6758C62.0447 23.2521 61.855 22.7313 61.855 22.1133C61.855 21.4954 62.0447 20.9657 62.4242 20.5244C62.8217 20.083 63.4089 19.8623 64.1858 19.8623H84.892Z" stroke="#1D1D1D"/>
<path d="M109.23 2.27754C109.23 1.58898 109.447 1.04167 109.88 0.635593C110.314 0.211864 110.892 0 111.615 0C112.338 0 112.907 0.211864 113.322 0.635593C113.756 1.04167 113.973 1.58898 113.973 2.27754V14.5392H109.23V9.375H107.875V14.5392H103.267V2.22458C103.267 1.55367 103.475 1.01518 103.891 0.60911C104.306 0.203037 104.867 0 105.571 0C106.276 0 106.836 0.203037 107.252 0.60911C107.667 1.01518 107.875 1.55367 107.875 2.22458V5.24364H109.23V2.27754ZM92.7788 19.7564C92.038 19.7564 91.4599 19.571 91.0443 19.2002C90.6468 18.8295 90.448 18.3263 90.448 17.6907C90.448 17.0551 90.6468 16.5519 91.0443 16.1811C91.4599 15.8104 92.038 15.625 92.7788 15.625H109.989C111.127 15.625 111.976 15.7486 112.536 15.9958C113.097 16.2253 113.476 16.6225 113.675 17.1875C113.892 17.7525 114 18.5911 114 19.7034V24.8676H108.525V20.3919C108.525 19.9682 108.309 19.7564 107.875 19.7564H92.7788ZM100.205 9.61335C100.928 9.61335 101.443 9.81638 101.75 10.2225C102.057 10.6285 102.21 11.1229 102.21 11.7055C102.21 12.3058 102.057 12.8178 101.75 13.2415C101.443 13.6653 100.928 13.8771 100.205 13.8771H92.6975C90.6016 13.8771 89.5536 12.8796 89.5536 10.8845V3.20445C89.5536 2.42761 89.7976 1.83616 90.2854 1.43009C90.7733 1.00636 91.4057 0.794491 92.1826 0.794491C92.9415 0.794491 93.5558 0.997527 94.0255 1.4036C94.4953 1.80967 94.7302 2.38347 94.7302 3.125V9.03072C94.7302 9.26024 94.7754 9.41914 94.8657 9.50742C94.9561 9.57804 95.1187 9.61335 95.3536 9.61335H100.205Z" stroke="#1D1D1D"/>
</svg>
