<svg width="162" height="43" viewBox="0 0 162 43" fill="none" xmlns="http://www.w3.org/2000/svg">
<g filter="url(#filter0_d_184_6573)">
<mask id="path-1-outside-1_184_6573" maskUnits="userSpaceOnUse" x="0" y="0" width="160" height="41" fill="black">
<rect fill="white" width="160" height="41"/>
<path d="M28.9945 6.67055C28.9945 5.50883 29.3484 4.60664 30.0563 3.96398C30.7641 3.32133 31.6306 3 32.6557 3C33.6808 3 34.5473 3.32133 35.2552 3.96398C35.963 4.60664 36.3169 5.50883 36.3169 6.67055V22.2426H28.9945V13.3443H26.3584C25.3821 13.3443 24.6011 13.0724 24.0153 12.5286C23.4539 11.9601 23.1732 11.2186 23.1732 10.304C23.1732 9.38948 23.4539 8.64795 24.0153 8.07945C24.6011 7.48623 25.3821 7.18962 26.3584 7.18962H28.9945V6.67055ZM5.30655 30.6589C5.30655 28.4838 5.98998 26.7288 7.35683 25.3941C8.74808 24.0593 10.7495 23.3919 13.3612 23.3919H28.665C31.2522 23.3919 33.2415 24.0593 34.6328 25.3941C36.024 26.7041 36.7196 28.459 36.7196 30.6589C36.7196 32.8588 36.024 34.6137 34.6328 35.9237C33.2415 37.2585 31.2522 37.9258 28.665 37.9258H13.3612C10.7495 37.9258 8.74808 37.2585 7.35683 35.9237C5.98998 34.589 5.30655 32.834 5.30655 30.6589ZM12.7388 30.6589C12.7388 31.2274 12.9218 31.697 13.288 32.0678C13.6541 32.4386 14.2033 32.6239 14.9355 32.6239H27.0907C27.8229 32.6239 28.3721 32.4386 28.7382 32.0678C29.1043 31.697 29.2874 31.2274 29.2874 30.6589C29.2874 30.0904 29.1043 29.6208 28.7382 29.25C28.3721 28.8545 27.8229 28.6568 27.0907 28.6568H14.9355C14.2033 28.6568 13.6541 28.8545 13.288 29.25C12.9218 29.6208 12.7388 30.0904 12.7388 30.6589ZM5.26994 16.1621C6.95409 15.4947 8.21111 14.5184 9.04098 13.2331C9.87085 11.9477 10.3224 10.1557 10.3956 7.85699L10.4322 6.52225C10.481 5.55826 10.8472 4.79202 11.5306 4.22352C12.214 3.65501 13.0561 3.37076 14.0568 3.37076C15.1064 3.37076 15.9728 3.67973 16.6563 4.29767C17.3397 4.89089 17.6814 5.69421 17.6814 6.70763V7.96822C17.6814 8.7839 17.6204 9.64901 17.4983 10.5636C20.2076 10.8602 22.2701 11.9477 23.6858 13.8263C25.1258 15.6801 25.7727 18.3249 25.6262 21.7606H18.5967C18.6211 21.5876 18.6333 21.3157 18.6333 20.9449C18.6333 19.5607 18.3648 18.4732 17.8279 17.6822C17.3153 16.8665 16.5586 16.3475 15.5579 16.125C14.4107 18.0282 12.9707 19.5237 11.2377 20.6112C9.52914 21.6988 7.8816 22.2426 6.29508 22.2426C5.29435 22.2426 4.48889 21.9707 3.87869 21.4269C3.2929 20.8831 3 20.1045 3 19.0911C3 18.399 3.19526 17.8058 3.58579 17.3114C3.97632 16.7924 4.5377 16.4093 5.26994 16.1621Z"/>
<path d="M70.8786 23.9481C71.9037 23.9481 72.6726 24.2447 73.1852 24.8379C73.6977 25.4311 73.954 26.148 73.954 26.9883C73.954 27.8535 73.6977 28.5826 73.1852 29.1758C72.6726 29.7444 71.9037 30.0286 70.8786 30.0286H60.554V38H53.0852V30.0286H42.7606C41.7355 30.0286 40.9666 29.7444 40.4541 29.1758C39.9415 28.5826 39.6852 27.8535 39.6852 26.9883C39.6852 26.148 39.9415 25.4311 40.4541 24.8379C40.9666 24.2447 41.7355 23.9481 42.7606 23.9481H70.8786ZM60.4808 7.00424C60.4808 7.7952 60.371 8.69739 60.1513 9.7108C62.2992 9.73552 64.3007 10.2175 66.1557 11.1568C68.0351 12.096 69.5972 13.5173 70.842 15.4206C72.1112 17.2991 72.8801 19.6225 73.1486 22.3909H65.7163C65.3258 20.191 64.3617 18.4732 62.824 17.2373C61.2863 15.9767 59.4313 15.3958 57.259 15.4947C55.6236 17.5957 53.61 19.2765 51.218 20.5371C48.826 21.7977 46.4096 22.428 43.9688 22.428C42.8949 22.428 42.0162 22.1437 41.3327 21.5752C40.6737 20.982 40.3442 20.191 40.3442 19.2023C40.3442 18.3867 40.5883 17.7069 41.0765 17.1631C41.589 16.5946 42.2847 16.2362 43.1633 16.0879C44.7743 15.8407 46.2754 15.297 47.6666 14.4566C49.0579 13.5915 50.2173 12.4668 51.1448 11.0826C52.0967 9.69845 52.6947 8.14124 52.9387 6.41102C53.1096 5.37288 53.5367 4.59428 54.2202 4.07521C54.928 3.53143 55.7945 3.25953 56.8196 3.25953C57.918 3.25953 58.7967 3.59322 59.4557 4.26059C60.1391 4.90325 60.4808 5.8178 60.4808 7.00424Z"/>
<path d="M107.391 7.30085C107.391 8.24011 107.232 9.42655 106.915 10.8602C109.063 10.9096 111.089 11.4534 112.992 12.4915C114.921 13.5297 116.532 15.0869 117.825 17.1631C119.119 19.2394 119.875 21.7853 120.095 24.8008H112.663C112.443 23.1695 111.931 21.7482 111.125 20.5371C110.32 19.3259 109.295 18.4114 108.05 17.7934C106.829 17.1508 105.499 16.8418 104.059 16.8665C102.375 19.2394 100.312 21.155 97.8717 22.6133C95.4309 24.0717 93.0145 24.8008 90.6225 24.8008C89.6217 24.8008 88.7797 24.5042 88.0963 23.911C87.4372 23.3178 87.1077 22.5145 87.1077 21.5011C87.1077 20.7101 87.3396 20.0304 87.8034 19.4619C88.2671 18.8686 88.9261 18.4855 89.7804 18.3125C91.4157 17.9417 92.9534 17.2496 94.3935 16.2362C95.8336 15.1981 97.0296 13.8757 97.9815 12.2691C98.9578 10.6624 99.568 8.85805 99.8121 6.85593C99.9585 5.74364 100.373 4.91561 101.057 4.37182C101.765 3.80332 102.643 3.51907 103.693 3.51907C104.791 3.51907 105.682 3.86511 106.366 4.5572C107.049 5.22458 107.391 6.13912 107.391 7.30085ZM117.679 30.8072C118.728 30.8072 119.509 31.1162 120.022 31.7341C120.559 32.352 120.827 33.0936 120.827 33.9587C120.827 34.8238 120.559 35.553 120.022 36.1462C119.509 36.7641 118.728 37.0731 117.679 37.0731H89.7072C88.6576 37.0731 87.8644 36.7641 87.3274 36.1462C86.8148 35.553 86.5586 34.8238 86.5586 33.9587C86.5586 33.0936 86.8148 32.352 87.3274 31.7341C87.8644 31.1162 88.6576 30.8072 89.7072 30.8072H117.679Z"/>
<path d="M150.556 6.18856C150.556 5.22458 150.849 4.45833 151.435 3.88983C152.021 3.29661 152.802 3 153.778 3C154.754 3 155.523 3.29661 156.085 3.88983C156.67 4.45833 156.963 5.22458 156.963 6.18856V23.3549H150.556V16.125H148.726V23.3549H142.502V6.11441C142.502 5.17514 142.782 4.42126 143.344 3.85275C143.905 3.28425 144.662 3 145.614 3C146.566 3 147.322 3.28425 147.884 3.85275C148.445 4.42126 148.726 5.17514 148.726 6.11441V10.3411H150.556V6.18856ZM128.333 30.6589C127.332 30.6589 126.551 30.3994 125.99 29.8803C125.453 29.3612 125.184 28.6568 125.184 27.767C125.184 26.8771 125.453 26.1727 125.99 25.6536C126.551 25.1345 127.332 24.875 128.333 24.875H151.581C153.119 24.875 154.266 25.048 155.023 25.3941C155.78 25.7154 156.292 26.2715 156.561 27.0625C156.854 27.8535 157 29.0275 157 30.5847V37.8146H149.604V31.5487C149.604 30.9555 149.311 30.6589 148.726 30.6589H128.333ZM138.365 16.4587C139.341 16.4587 140.036 16.7429 140.451 17.3114C140.866 17.8799 141.074 18.572 141.074 19.3877C141.074 20.2281 140.866 20.9449 140.451 21.5381C140.036 22.1314 139.341 22.428 138.365 22.428H128.223C125.392 22.428 123.976 21.0314 123.976 18.2383V7.48623C123.976 6.39866 124.306 5.57062 124.965 5.00212C125.624 4.4089 126.478 4.11229 127.527 4.11229C128.552 4.11229 129.382 4.39654 130.017 4.96504C130.652 5.53354 130.969 6.33686 130.969 7.375V15.643C130.969 15.9643 131.03 16.1868 131.152 16.3104C131.274 16.4093 131.494 16.4587 131.811 16.4587H138.365Z"/>
</mask>
<path d="M28.9945 6.67055C28.9945 5.50883 29.3484 4.60664 30.0563 3.96398C30.7641 3.32133 31.6306 3 32.6557 3C33.6808 3 34.5473 3.32133 35.2552 3.96398C35.963 4.60664 36.3169 5.50883 36.3169 6.67055V22.2426H28.9945V13.3443H26.3584C25.3821 13.3443 24.6011 13.0724 24.0153 12.5286C23.4539 11.9601 23.1732 11.2186 23.1732 10.304C23.1732 9.38948 23.4539 8.64795 24.0153 8.07945C24.6011 7.48623 25.3821 7.18962 26.3584 7.18962H28.9945V6.67055ZM5.30655 30.6589C5.30655 28.4838 5.98998 26.7288 7.35683 25.3941C8.74808 24.0593 10.7495 23.3919 13.3612 23.3919H28.665C31.2522 23.3919 33.2415 24.0593 34.6328 25.3941C36.024 26.7041 36.7196 28.459 36.7196 30.6589C36.7196 32.8588 36.024 34.6137 34.6328 35.9237C33.2415 37.2585 31.2522 37.9258 28.665 37.9258H13.3612C10.7495 37.9258 8.74808 37.2585 7.35683 35.9237C5.98998 34.589 5.30655 32.834 5.30655 30.6589ZM12.7388 30.6589C12.7388 31.2274 12.9218 31.697 13.288 32.0678C13.6541 32.4386 14.2033 32.6239 14.9355 32.6239H27.0907C27.8229 32.6239 28.3721 32.4386 28.7382 32.0678C29.1043 31.697 29.2874 31.2274 29.2874 30.6589C29.2874 30.0904 29.1043 29.6208 28.7382 29.25C28.3721 28.8545 27.8229 28.6568 27.0907 28.6568H14.9355C14.2033 28.6568 13.6541 28.8545 13.288 29.25C12.9218 29.6208 12.7388 30.0904 12.7388 30.6589ZM5.26994 16.1621C6.95409 15.4947 8.21111 14.5184 9.04098 13.2331C9.87085 11.9477 10.3224 10.1557 10.3956 7.85699L10.4322 6.52225C10.481 5.55826 10.8472 4.79202 11.5306 4.22352C12.214 3.65501 13.0561 3.37076 14.0568 3.37076C15.1064 3.37076 15.9728 3.67973 16.6563 4.29767C17.3397 4.89089 17.6814 5.69421 17.6814 6.70763V7.96822C17.6814 8.7839 17.6204 9.64901 17.4983 10.5636C20.2076 10.8602 22.2701 11.9477 23.6858 13.8263C25.1258 15.6801 25.7727 18.3249 25.6262 21.7606H18.5967C18.6211 21.5876 18.6333 21.3157 18.6333 20.9449C18.6333 19.5607 18.3648 18.4732 17.8279 17.6822C17.3153 16.8665 16.5586 16.3475 15.5579 16.125C14.4107 18.0282 12.9707 19.5237 11.2377 20.6112C9.52914 21.6988 7.8816 22.2426 6.29508 22.2426C5.29435 22.2426 4.48889 21.9707 3.87869 21.4269C3.2929 20.8831 3 20.1045 3 19.0911C3 18.399 3.19526 17.8058 3.58579 17.3114C3.97632 16.7924 4.5377 16.4093 5.26994 16.1621Z" fill="#FFEAD1"/>
<path d="M70.8786 23.9481C71.9037 23.9481 72.6726 24.2447 73.1852 24.8379C73.6977 25.4311 73.954 26.148 73.954 26.9883C73.954 27.8535 73.6977 28.5826 73.1852 29.1758C72.6726 29.7444 71.9037 30.0286 70.8786 30.0286H60.554V38H53.0852V30.0286H42.7606C41.7355 30.0286 40.9666 29.7444 40.4541 29.1758C39.9415 28.5826 39.6852 27.8535 39.6852 26.9883C39.6852 26.148 39.9415 25.4311 40.4541 24.8379C40.9666 24.2447 41.7355 23.9481 42.7606 23.9481H70.8786ZM60.4808 7.00424C60.4808 7.7952 60.371 8.69739 60.1513 9.7108C62.2992 9.73552 64.3007 10.2175 66.1557 11.1568C68.0351 12.096 69.5972 13.5173 70.842 15.4206C72.1112 17.2991 72.8801 19.6225 73.1486 22.3909H65.7163C65.3258 20.191 64.3617 18.4732 62.824 17.2373C61.2863 15.9767 59.4313 15.3958 57.259 15.4947C55.6236 17.5957 53.61 19.2765 51.218 20.5371C48.826 21.7977 46.4096 22.428 43.9688 22.428C42.8949 22.428 42.0162 22.1437 41.3327 21.5752C40.6737 20.982 40.3442 20.191 40.3442 19.2023C40.3442 18.3867 40.5883 17.7069 41.0765 17.1631C41.589 16.5946 42.2847 16.2362 43.1633 16.0879C44.7743 15.8407 46.2754 15.297 47.6666 14.4566C49.0579 13.5915 50.2173 12.4668 51.1448 11.0826C52.0967 9.69845 52.6947 8.14124 52.9387 6.41102C53.1096 5.37288 53.5367 4.59428 54.2202 4.07521C54.928 3.53143 55.7945 3.25953 56.8196 3.25953C57.918 3.25953 58.7967 3.59322 59.4557 4.26059C60.1391 4.90325 60.4808 5.8178 60.4808 7.00424Z" fill="#FFEAD1"/>
<path d="M107.391 7.30085C107.391 8.24011 107.232 9.42655 106.915 10.8602C109.063 10.9096 111.089 11.4534 112.992 12.4915C114.921 13.5297 116.532 15.0869 117.825 17.1631C119.119 19.2394 119.875 21.7853 120.095 24.8008H112.663C112.443 23.1695 111.931 21.7482 111.125 20.5371C110.32 19.3259 109.295 18.4114 108.05 17.7934C106.829 17.1508 105.499 16.8418 104.059 16.8665C102.375 19.2394 100.312 21.155 97.8717 22.6133C95.4309 24.0717 93.0145 24.8008 90.6225 24.8008C89.6217 24.8008 88.7797 24.5042 88.0963 23.911C87.4372 23.3178 87.1077 22.5145 87.1077 21.5011C87.1077 20.7101 87.3396 20.0304 87.8034 19.4619C88.2671 18.8686 88.9261 18.4855 89.7804 18.3125C91.4157 17.9417 92.9534 17.2496 94.3935 16.2362C95.8336 15.1981 97.0296 13.8757 97.9815 12.2691C98.9578 10.6624 99.568 8.85805 99.8121 6.85593C99.9585 5.74364 100.373 4.91561 101.057 4.37182C101.765 3.80332 102.643 3.51907 103.693 3.51907C104.791 3.51907 105.682 3.86511 106.366 4.5572C107.049 5.22458 107.391 6.13912 107.391 7.30085ZM117.679 30.8072C118.728 30.8072 119.509 31.1162 120.022 31.7341C120.559 32.352 120.827 33.0936 120.827 33.9587C120.827 34.8238 120.559 35.553 120.022 36.1462C119.509 36.7641 118.728 37.0731 117.679 37.0731H89.7072C88.6576 37.0731 87.8644 36.7641 87.3274 36.1462C86.8148 35.553 86.5586 34.8238 86.5586 33.9587C86.5586 33.0936 86.8148 32.352 87.3274 31.7341C87.8644 31.1162 88.6576 30.8072 89.7072 30.8072H117.679Z" fill="#FFEAD1"/>
<path d="M150.556 6.18856C150.556 5.22458 150.849 4.45833 151.435 3.88983C152.021 3.29661 152.802 3 153.778 3C154.754 3 155.523 3.29661 156.085 3.88983C156.67 4.45833 156.963 5.22458 156.963 6.18856V23.3549H150.556V16.125H148.726V23.3549H142.502V6.11441C142.502 5.17514 142.782 4.42126 143.344 3.85275C143.905 3.28425 144.662 3 145.614 3C146.566 3 147.322 3.28425 147.884 3.85275C148.445 4.42126 148.726 5.17514 148.726 6.11441V10.3411H150.556V6.18856ZM128.333 30.6589C127.332 30.6589 126.551 30.3994 125.99 29.8803C125.453 29.3612 125.184 28.6568 125.184 27.767C125.184 26.8771 125.453 26.1727 125.99 25.6536C126.551 25.1345 127.332 24.875 128.333 24.875H151.581C153.119 24.875 154.266 25.048 155.023 25.3941C155.78 25.7154 156.292 26.2715 156.561 27.0625C156.854 27.8535 157 29.0275 157 30.5847V37.8146H149.604V31.5487C149.604 30.9555 149.311 30.6589 148.726 30.6589H128.333ZM138.365 16.4587C139.341 16.4587 140.036 16.7429 140.451 17.3114C140.866 17.8799 141.074 18.572 141.074 19.3877C141.074 20.2281 140.866 20.9449 140.451 21.5381C140.036 22.1314 139.341 22.428 138.365 22.428H128.223C125.392 22.428 123.976 21.0314 123.976 18.2383V7.48623C123.976 6.39866 124.306 5.57062 124.965 5.00212C125.624 4.4089 126.478 4.11229 127.527 4.11229C128.552 4.11229 129.382 4.39654 130.017 4.96504C130.652 5.53354 130.969 6.33686 130.969 7.375V15.643C130.969 15.9643 131.03 16.1868 131.152 16.3104C131.274 16.4093 131.494 16.4587 131.811 16.4587H138.365Z" fill="#FFEAD1"/>
<path d="M28.9945 6.67055C28.9945 5.50883 29.3484 4.60664 30.0563 3.96398C30.7641 3.32133 31.6306 3 32.6557 3C33.6808 3 34.5473 3.32133 35.2552 3.96398C35.963 4.60664 36.3169 5.50883 36.3169 6.67055V22.2426H28.9945V13.3443H26.3584C25.3821 13.3443 24.6011 13.0724 24.0153 12.5286C23.4539 11.9601 23.1732 11.2186 23.1732 10.304C23.1732 9.38948 23.4539 8.64795 24.0153 8.07945C24.6011 7.48623 25.3821 7.18962 26.3584 7.18962H28.9945V6.67055ZM5.30655 30.6589C5.30655 28.4838 5.98998 26.7288 7.35683 25.3941C8.74808 24.0593 10.7495 23.3919 13.3612 23.3919H28.665C31.2522 23.3919 33.2415 24.0593 34.6328 25.3941C36.024 26.7041 36.7196 28.459 36.7196 30.6589C36.7196 32.8588 36.024 34.6137 34.6328 35.9237C33.2415 37.2585 31.2522 37.9258 28.665 37.9258H13.3612C10.7495 37.9258 8.74808 37.2585 7.35683 35.9237C5.98998 34.589 5.30655 32.834 5.30655 30.6589ZM12.7388 30.6589C12.7388 31.2274 12.9218 31.697 13.288 32.0678C13.6541 32.4386 14.2033 32.6239 14.9355 32.6239H27.0907C27.8229 32.6239 28.3721 32.4386 28.7382 32.0678C29.1043 31.697 29.2874 31.2274 29.2874 30.6589C29.2874 30.0904 29.1043 29.6208 28.7382 29.25C28.3721 28.8545 27.8229 28.6568 27.0907 28.6568H14.9355C14.2033 28.6568 13.6541 28.8545 13.288 29.25C12.9218 29.6208 12.7388 30.0904 12.7388 30.6589ZM5.26994 16.1621C6.95409 15.4947 8.21111 14.5184 9.04098 13.2331C9.87085 11.9477 10.3224 10.1557 10.3956 7.85699L10.4322 6.52225C10.481 5.55826 10.8472 4.79202 11.5306 4.22352C12.214 3.65501 13.0561 3.37076 14.0568 3.37076C15.1064 3.37076 15.9728 3.67973 16.6563 4.29767C17.3397 4.89089 17.6814 5.69421 17.6814 6.70763V7.96822C17.6814 8.7839 17.6204 9.64901 17.4983 10.5636C20.2076 10.8602 22.2701 11.9477 23.6858 13.8263C25.1258 15.6801 25.7727 18.3249 25.6262 21.7606H18.5967C18.6211 21.5876 18.6333 21.3157 18.6333 20.9449C18.6333 19.5607 18.3648 18.4732 17.8279 17.6822C17.3153 16.8665 16.5586 16.3475 15.5579 16.125C14.4107 18.0282 12.9707 19.5237 11.2377 20.6112C9.52914 21.6988 7.8816 22.2426 6.29508 22.2426C5.29435 22.2426 4.48889 21.9707 3.87869 21.4269C3.2929 20.8831 3 20.1045 3 19.0911C3 18.399 3.19526 17.8058 3.58579 17.3114C3.97632 16.7924 4.5377 16.4093 5.26994 16.1621Z" stroke="#2D2D2D" stroke-width="6" mask="url(#path-1-outside-1_184_6573)"/>
<path d="M70.8786 23.9481C71.9037 23.9481 72.6726 24.2447 73.1852 24.8379C73.6977 25.4311 73.954 26.148 73.954 26.9883C73.954 27.8535 73.6977 28.5826 73.1852 29.1758C72.6726 29.7444 71.9037 30.0286 70.8786 30.0286H60.554V38H53.0852V30.0286H42.7606C41.7355 30.0286 40.9666 29.7444 40.4541 29.1758C39.9415 28.5826 39.6852 27.8535 39.6852 26.9883C39.6852 26.148 39.9415 25.4311 40.4541 24.8379C40.9666 24.2447 41.7355 23.9481 42.7606 23.9481H70.8786ZM60.4808 7.00424C60.4808 7.7952 60.371 8.69739 60.1513 9.7108C62.2992 9.73552 64.3007 10.2175 66.1557 11.1568C68.0351 12.096 69.5972 13.5173 70.842 15.4206C72.1112 17.2991 72.8801 19.6225 73.1486 22.3909H65.7163C65.3258 20.191 64.3617 18.4732 62.824 17.2373C61.2863 15.9767 59.4313 15.3958 57.259 15.4947C55.6236 17.5957 53.61 19.2765 51.218 20.5371C48.826 21.7977 46.4096 22.428 43.9688 22.428C42.8949 22.428 42.0162 22.1437 41.3327 21.5752C40.6737 20.982 40.3442 20.191 40.3442 19.2023C40.3442 18.3867 40.5883 17.7069 41.0765 17.1631C41.589 16.5946 42.2847 16.2362 43.1633 16.0879C44.7743 15.8407 46.2754 15.297 47.6666 14.4566C49.0579 13.5915 50.2173 12.4668 51.1448 11.0826C52.0967 9.69845 52.6947 8.14124 52.9387 6.41102C53.1096 5.37288 53.5367 4.59428 54.2202 4.07521C54.928 3.53143 55.7945 3.25953 56.8196 3.25953C57.918 3.25953 58.7967 3.59322 59.4557 4.26059C60.1391 4.90325 60.4808 5.8178 60.4808 7.00424Z" stroke="#2D2D2D" stroke-width="6" mask="url(#path-1-outside-1_184_6573)"/>
<path d="M107.391 7.30085C107.391 8.24011 107.232 9.42655 106.915 10.8602C109.063 10.9096 111.089 11.4534 112.992 12.4915C114.921 13.5297 116.532 15.0869 117.825 17.1631C119.119 19.2394 119.875 21.7853 120.095 24.8008H112.663C112.443 23.1695 111.931 21.7482 111.125 20.5371C110.32 19.3259 109.295 18.4114 108.05 17.7934C106.829 17.1508 105.499 16.8418 104.059 16.8665C102.375 19.2394 100.312 21.155 97.8717 22.6133C95.4309 24.0717 93.0145 24.8008 90.6225 24.8008C89.6217 24.8008 88.7797 24.5042 88.0963 23.911C87.4372 23.3178 87.1077 22.5145 87.1077 21.5011C87.1077 20.7101 87.3396 20.0304 87.8034 19.4619C88.2671 18.8686 88.9261 18.4855 89.7804 18.3125C91.4157 17.9417 92.9534 17.2496 94.3935 16.2362C95.8336 15.1981 97.0296 13.8757 97.9815 12.2691C98.9578 10.6624 99.568 8.85805 99.8121 6.85593C99.9585 5.74364 100.373 4.91561 101.057 4.37182C101.765 3.80332 102.643 3.51907 103.693 3.51907C104.791 3.51907 105.682 3.86511 106.366 4.5572C107.049 5.22458 107.391 6.13912 107.391 7.30085ZM117.679 30.8072C118.728 30.8072 119.509 31.1162 120.022 31.7341C120.559 32.352 120.827 33.0936 120.827 33.9587C120.827 34.8238 120.559 35.553 120.022 36.1462C119.509 36.7641 118.728 37.0731 117.679 37.0731H89.7072C88.6576 37.0731 87.8644 36.7641 87.3274 36.1462C86.8148 35.553 86.5586 34.8238 86.5586 33.9587C86.5586 33.0936 86.8148 32.352 87.3274 31.7341C87.8644 31.1162 88.6576 30.8072 89.7072 30.8072H117.679Z" stroke="#2D2D2D" stroke-width="6" mask="url(#path-1-outside-1_184_6573)"/>
<path d="M150.556 6.18856C150.556 5.22458 150.849 4.45833 151.435 3.88983C152.021 3.29661 152.802 3 153.778 3C154.754 3 155.523 3.29661 156.085 3.88983C156.67 4.45833 156.963 5.22458 156.963 6.18856V23.3549H150.556V16.125H148.726V23.3549H142.502V6.11441C142.502 5.17514 142.782 4.42126 143.344 3.85275C143.905 3.28425 144.662 3 145.614 3C146.566 3 147.322 3.28425 147.884 3.85275C148.445 4.42126 148.726 5.17514 148.726 6.11441V10.3411H150.556V6.18856ZM128.333 30.6589C127.332 30.6589 126.551 30.3994 125.99 29.8803C125.453 29.3612 125.184 28.6568 125.184 27.767C125.184 26.8771 125.453 26.1727 125.99 25.6536C126.551 25.1345 127.332 24.875 128.333 24.875H151.581C153.119 24.875 154.266 25.048 155.023 25.3941C155.78 25.7154 156.292 26.2715 156.561 27.0625C156.854 27.8535 157 29.0275 157 30.5847V37.8146H149.604V31.5487C149.604 30.9555 149.311 30.6589 148.726 30.6589H128.333ZM138.365 16.4587C139.341 16.4587 140.036 16.7429 140.451 17.3114C140.866 17.8799 141.074 18.572 141.074 19.3877C141.074 20.2281 140.866 20.9449 140.451 21.5381C140.036 22.1314 139.341 22.428 138.365 22.428H128.223C125.392 22.428 123.976 21.0314 123.976 18.2383V7.48623C123.976 6.39866 124.306 5.57062 124.965 5.00212C125.624 4.4089 126.478 4.11229 127.527 4.11229C128.552 4.11229 129.382 4.39654 130.017 4.96504C130.652 5.53354 130.969 6.33686 130.969 7.375V15.643C130.969 15.9643 131.03 16.1868 131.152 16.3104C131.274 16.4093 131.494 16.4587 131.811 16.4587H138.365Z" stroke="#2D2D2D" stroke-width="6" mask="url(#path-1-outside-1_184_6573)"/>
</g>
<defs>
<filter id="filter0_d_184_6573" x="0" y="0" width="162" height="43" filterUnits="userSpaceOnUse" color-interpolation-filters="sRGB">
<feFlood flood-opacity="0" result="BackgroundImageFix"/>
<feColorMatrix in="SourceAlpha" type="matrix" values="0 0 0 0 0 0 0 0 0 0 0 0 0 0 0 0 0 0 127 0" result="hardAlpha"/>
<feOffset dx="2" dy="2"/>
<feComposite in2="hardAlpha" operator="out"/>
<feColorMatrix type="matrix" values="0 0 0 0 0.176471 0 0 0 0 0.176471 0 0 0 0 0.176471 0 0 0 1 0"/>
<feBlend mode="normal" in2="BackgroundImageFix" result="effect1_dropShadow_184_6573"/>
<feBlend mode="normal" in="SourceGraphic" in2="effect1_dropShadow_184_6573" result="shape"/>
</filter>
</defs>
</svg>
