<svg width="211" height="162" viewBox="0 0 211 162" fill="none" xmlns="http://www.w3.org/2000/svg">
<path d="M146.693 126.56C145.559 126.631 144.07 127.175 142.713 127.876C142.748 127.89 142.779 127.902 142.814 127.916C144.214 128.574 145.396 130.024 145.898 131.706C146.911 134.705 146.165 137.875 145.301 140.579C145.158 141.027 144.673 141.277 144.222 141.135C143.769 140.993 143.516 140.516 143.66 140.068C144.443 137.619 145.126 134.773 144.263 132.237L144.251 132.203C143.89 130.986 143.037 129.905 142.076 129.454C141.476 129.173 140.868 129.153 140.266 129.397C139.396 129.825 138.705 130.617 138.194 131.74L139.106 132.112C141.063 132.909 142.076 135.057 141.436 137.055L141.187 137.829C140.4 139.716 139.035 140.845 137.178 140.335C137.236 141.359 137.336 142.445 137.477 143.592C139.603 143.498 142.053 144.111 144.768 145.433C145.195 145.64 145.37 146.151 145.161 146.574C144.951 146.996 144.435 147.17 144.007 146.962C140.716 145.359 136.194 144.102 133.328 147.215C132.117 148.551 131.526 150.679 131.747 152.901C131.967 155.12 132.94 157.015 134.409 158.107C136.527 159.671 139.213 159.994 142.245 160.23C150.584 160.8 154.635 158.175 156.687 150.872C158.397 144.766 159.981 136.95 157.005 130.679C156.727 130.092 156.403 129.57 156.024 129.113C155.748 128.818 155.45 128.537 155.123 128.279C154.698 127.944 154.245 127.652 153.771 127.397C152.07 126.616 149.78 126.367 146.693 126.562V126.56Z" fill="#77563A"/>
<path d="M25.7167 25.2518C27.5846 24.7552 29.5472 25.6263 30.4137 27.3343L30.6548 27.8082C31.3118 27.2634 31.8283 26.6023 32.0148 25.7682C32.2099 24.5566 31.1741 23.5608 30.0666 23.1238C29.398 22.8486 29.7796 21.8697 30.4597 22.1024C30.8642 22.2471 31.2372 22.4372 31.5701 22.6642C32.5055 20.1503 33.2056 17.7131 32.3448 15.4773C32.3419 15.466 32.3362 15.4575 32.3333 15.4461C31.4438 12.8387 26.6636 8.53737 23.952 7.89898C23.9434 7.89898 23.932 7.8933 23.9234 7.89047C23.2921 7.72023 22.6121 7.80535 22.0526 8.1288C21.5447 8.42388 21.1918 8.88635 21.054 9.43395C21.054 9.4453 21.0483 9.45381 21.0454 9.46232C20.6782 10.7363 21.0282 12.1237 21.3984 13.5962L21.407 13.6303C21.4098 13.6473 21.4098 13.6615 21.4127 13.6785C22.0784 13.6558 22.7412 13.6331 23.404 13.6076C24.0553 13.5962 24.1271 14.5524 23.4557 14.612C18.2909 14.9354 12.9798 15.0915 8.16793 17.0889C6.38322 17.9543 0.552767 19.9347 1.83535 22.5223C1.99316 22.7975 2.34322 23.1096 2.73919 23.4558C4.51529 22.4372 6.64146 22.0627 8.62416 21.6938C9.13489 21.6144 9.29558 22.3521 8.79344 22.4854C6.52668 23.0898 4.00455 23.6629 2.35183 25.3965C1.4193 26.4718 1.82961 27.1698 3.10646 27.5641C3.24706 27.6152 3.35896 27.6862 3.44791 27.7684C3.96438 27.4819 4.49808 27.2407 5.01168 27.0307C6.1795 26.5654 7.37026 26.2278 8.5266 25.8589C8.74467 25.788 8.97708 25.9072 9.04881 26.1228C9.11768 26.3328 9.0029 26.5626 8.79344 26.6364C7.52808 27.1102 5.11498 27.7883 3.53399 28.8665C3.43069 29.0168 3.28149 29.136 3.09785 29.1927C2.46373 29.7176 2.03907 30.3248 2.01325 31.037C2.67606 34.5155 10.5523 31.3604 12.624 30.4667C14.7702 29.5446 16.862 28.4863 18.9738 27.4138C19.0455 26.7981 19.2406 26.1654 19.5792 25.5497C20.1359 24.568 21.6049 25.334 21.1028 26.3413C20.3023 27.6124 20.4199 29.5105 21.9607 30.1461C22.1903 30.234 22.4256 30.2964 22.6666 30.3418C22.7383 30.3418 22.8101 30.3418 22.8847 30.3418C22.2018 28.1997 23.4413 25.8533 25.7109 25.2489L25.7167 25.2518ZM21.1688 23.7083C22.5633 22.6784 24.173 22.074 25.8142 21.8442C26.1069 21.8045 26.3766 22.0059 26.4168 22.2925C26.4541 22.5592 26.2848 22.806 26.0266 22.8741C24.6034 23.2742 23.2835 24.0147 22.2907 24.9964C21.3955 25.8221 20.2076 24.4573 21.1688 23.7055V23.7083Z" fill="#F9F8F7"/>
<path d="M85.4128 101.376C85.3927 101.438 85.3669 101.501 85.344 101.563C85.3669 101.501 85.3927 101.441 85.4128 101.376Z" fill="#A8713F"/>
<path d="M72.1738 12.6713C72.389 12.938 72.7132 13.094 73.0547 13.0997C72.7132 13.094 72.389 12.9408 72.1738 12.6713Z" fill="#A8713F"/>
<path d="M91.6536 12.379C90.173 9.18994 86.6581 6.96268 83.1088 6.95984C86.6581 6.95984 90.1702 9.18994 91.6536 12.379Z" fill="#A8713F"/>
<path d="M155.395 76.3171C157.757 78.428 159.131 81.6455 158.864 84.7892C158.578 88.1939 156.383 91.3688 153.341 92.9719C154.698 95.4006 154.885 98.323 154.078 100.939C155.143 100.757 156.164 100.369 157.057 99.7615C160.313 97.5342 161.41 92.6541 159.43 89.2664L158.821 88.5571C158.575 88.2705 158.489 87.8818 158.592 87.5187C158.692 87.1555 158.971 86.8689 159.329 86.7469C162.256 85.7681 164.483 82.9563 164.738 79.9119C164.996 76.8675 163.272 73.7295 160.549 72.2853C160.213 72.1066 159.998 71.7774 159.955 71.4143C159.077 73.5053 157.433 75.29 155.393 76.3142L155.395 76.3171Z" fill="#A8713F"/>
<path d="M106.557 12.9578C106.614 13.7892 107.004 18.8026 107.954 20.5901C108.878 22.3209 111.024 23.8643 113.699 24.7212C116.433 25.5951 117.908 25.7852 120.588 26.1256L120.823 26.1569C122.091 26.3186 123.23 26.4094 124.235 26.4917C126.731 26.6903 128.163 26.8406 128.576 27.5783C129.047 28.421 129.365 29.2892 129.704 30.2085C130.117 31.3292 130.541 32.4868 131.265 33.6246C134.449 38.6324 136.84 40.6326 140.989 43.2146C136.84 40.6298 134.449 38.6324 131.265 33.6246C130.541 32.4868 130.114 31.3292 129.704 30.2085C129.365 29.2892 129.047 28.421 128.576 27.5783C128.163 26.8378 126.731 26.6903 124.235 26.4917C123.23 26.4122 122.091 26.3214 120.823 26.1569L120.588 26.1256C117.908 25.7823 116.433 25.5922 113.699 24.7212C111.024 23.8672 108.875 22.3237 107.954 20.5901C107.002 18.8055 106.614 13.792 106.557 12.9578Z" fill="#A8713F"/>
<path d="M156.684 59.5261C156.431 59.719 156.176 59.9063 155.906 60.0765C158.727 61.7193 160.672 64.846 160.652 68.1117C160.646 68.9146 160.52 69.7091 160.293 70.4751C160.448 70.3247 160.646 70.2141 160.873 70.1715C163.969 69.5644 166.503 66.5341 166.523 63.4131C166.523 63.1862 166.508 62.9592 166.483 62.735L156.827 59.5828C156.778 59.5658 156.73 59.5459 156.681 59.5261H156.684Z" fill="#A8713F"/>
<path d="M151.878 60.2127C151.901 60.7291 152.277 61.166 152.787 61.2738C155.878 61.9151 158.374 64.9765 158.357 68.0975C158.339 71.2185 155.803 74.2515 152.707 74.8559C152.231 74.9495 151.866 75.3269 151.794 75.8007C151.723 76.2745 151.961 76.7427 152.386 76.9697C155.109 78.4138 156.83 81.5519 156.575 84.5963C156.319 87.6407 154.093 90.4524 151.166 91.4313C150.807 91.5504 150.529 91.8398 150.429 92.203C150.325 92.5662 150.411 92.952 150.658 93.2414L151.267 93.9508C152.495 96.0532 152.538 98.7344 151.614 100.996C152.538 98.7344 152.497 96.0532 151.267 93.9508L150.658 93.2414C150.411 92.9549 150.325 92.5662 150.429 92.203C150.529 91.8398 150.807 91.5533 151.166 91.4313C154.093 90.4524 156.319 87.6407 156.575 84.5963C156.833 81.5519 155.109 78.4138 152.386 76.9697C151.958 76.7427 151.723 76.2745 151.794 75.8007C151.866 75.3269 152.231 74.9495 152.707 74.8559C155.803 74.2487 158.337 71.2185 158.357 68.0975C158.377 64.9765 155.878 61.9151 152.787 61.2738C152.274 61.166 151.901 60.7319 151.878 60.2127Z" fill="#A8713F"/>
<path d="M68.0535 7.74009C69.9214 8.1288 71.6831 8.99417 73.0776 10.2993C74.211 8.45792 75.8723 6.97119 77.7977 5.98949C76.6585 5.43055 75.3788 5.1298 74.102 5.10426C72.4751 5.07305 70.8482 5.49297 69.5139 6.40373C68.963 6.78109 68.4752 7.23506 68.0535 7.74293V7.74009Z" fill="#A8713F"/>
<path d="M102.703 6.2335C105.914 7.14994 108.287 9.55595 108.826 12.623C108.832 12.6628 108.838 12.7025 108.841 12.7422C108.981 14.8021 109.415 18.465 109.983 19.5318C110.623 20.732 112.316 21.8924 114.402 22.5592C116.935 23.3678 118.252 23.5381 120.88 23.8729L121.116 23.9041C122.329 24.0601 123.437 24.1481 124.415 24.2247C127.397 24.463 129.552 24.6332 130.582 26.4775C131.138 27.4734 131.506 28.4692 131.858 29.4282C132.246 30.4837 132.613 31.4796 133.207 32.4131C136.171 37.0775 138.289 38.8508 142.211 41.2909C143.554 42.1279 145.149 43.0188 147.115 43.0188H156.537C156.876 43.0188 157.197 43.1663 157.415 43.4245L158.288 44.4516C159.978 46.4434 160.896 48.9601 160.859 51.437L164.055 52.5095C165.544 51.1079 166.551 49.1814 166.709 47.1782C166.873 45.0957 166.138 42.9252 164.695 41.2228L164.167 40.6014L155.281 40.6014C152.827 40.6014 150.888 39.6027 149.155 38.5245C145.006 35.9398 142.616 33.9423 139.431 28.9346C138.708 27.7968 138.28 26.6392 137.87 25.5185C137.531 24.5992 137.213 23.731 136.742 22.8883C136.329 22.1478 134.897 22.0002 132.401 21.8016C131.396 21.7222 130.257 21.6314 128.989 21.4668L128.754 21.4356C126.074 21.0923 124.599 20.9022 121.865 20.0312C119.19 19.1772 117.041 17.6337 116.12 15.9001C115.168 14.1155 114.78 9.10198 114.723 8.26783C114.241 5.6859 111.877 3.75372 108.818 3.45013C108.637 3.43311 108.456 3.42176 108.278 3.42176C106.115 3.39906 103.977 4.50843 102.709 6.2335H102.703Z" fill="#A8713F"/>
<path d="M92.6722 9.61269C94.1011 7.67767 96.3449 6.32713 98.7379 5.95261C96.9676 3.71967 94.1298 2.27266 91.2662 2.27266H91.2605C88.9134 2.27266 86.5892 3.25152 84.8504 4.83188C87.9694 5.31989 90.8387 7.07617 92.6693 9.61553L92.6722 9.61269Z" fill="#A8713F"/>
<path d="M137.043 102.443C137.092 102.437 137.141 102.434 137.19 102.437C137.141 102.437 137.092 102.437 137.043 102.443Z" fill="#A8713F"/>
<path d="M117.549 102.497C117.549 102.497 117.526 102.497 117.515 102.497C117.354 102.502 117.202 102.539 117.064 102.604C117.205 102.539 117.357 102.499 117.515 102.497C117.526 102.497 117.538 102.497 117.549 102.497Z" fill="#A8713F"/>
<path d="M185.951 88.0294C186.005 89.2352 186.562 90.251 187.474 90.8383C188.413 91.4398 189.612 91.5277 190.766 91.0794C191.294 90.8752 191.89 91.1305 192.097 91.6526C192.306 92.1746 192.045 92.7648 191.517 92.9691C191.159 93.1081 190.794 93.2159 190.427 93.2868C189.222 93.5223 188.014 93.3748 186.946 92.8641C185.42 94.9608 185.015 98.167 187.245 100.315C187.558 100.633 187.905 100.882 188.272 101.146C188.809 101.532 189.362 101.935 189.801 102.522C190.243 103.087 190.493 103.745 190.714 104.324C190.909 104.835 191.093 105.32 191.382 105.669C191.391 105.677 191.397 105.689 191.405 105.697C192.028 106.506 193.093 106.968 194.111 106.877C194.516 106.849 194.894 106.724 195.288 106.582C195.359 105.561 195.397 104.46 195.115 103.495C194.998 103.226 195.133 102.908 195.417 102.812C196.321 102.465 196.929 105.257 197.107 105.876C197.121 105.941 197.135 106.004 197.15 106.069C197.19 106.066 197.224 106.057 197.265 106.055C197.807 106.004 198.323 106.086 198.777 106.157C199.276 106.236 199.706 106.304 200.091 106.208C200.866 106.04 201.236 105.064 201.362 104.65C201.368 104.627 201.376 104.608 201.385 104.585C201.388 104.574 201.393 104.565 201.399 104.554C201.296 103.461 201.207 102.25 200.857 101.228C200.739 101.024 200.794 100.752 201.026 100.661C201.173 100.601 201.333 100.641 201.437 100.743C201.738 101.047 201.896 101.322 202.076 101.609C202.415 102.17 202.708 102.743 202.992 103.325C203.012 103.365 203.029 103.402 203.046 103.441C203.184 103.453 203.325 103.473 203.477 103.512C203.491 103.515 203.505 103.521 203.52 103.524C203.795 103.609 204.481 103.768 204.951 103.433C205.347 103.149 205.428 102.868 205.56 102.406C205.586 102.318 205.609 102.23 205.637 102.145C205.66 102.077 205.683 102.011 205.712 101.949C205.565 101.047 205.402 100.108 205.081 99.265C204.994 99.0579 205.095 98.8195 205.307 98.7344C205.792 98.5727 206.068 99.2394 206.329 99.5061C206.687 99.9942 207.014 100.488 207.327 100.996C207.382 100.99 207.433 100.984 207.479 100.982C207.606 100.97 207.798 100.95 207.861 100.928C207.884 100.919 207.907 100.911 207.93 100.905C208.375 100.774 208.745 100.349 208.888 99.8154C209.439 95.6418 205.221 90.5091 201.967 88.1088C201.609 88.8635 201.13 89.5842 200.538 90.2226C200.157 90.6368 199.505 90.668 199.087 90.2907C198.668 89.9133 198.636 89.2693 199.018 88.855C200.134 87.6435 200.754 86.0234 200.633 84.6275C200.544 83.6089 200.082 82.7691 199.259 82.1363C198.343 81.4639 196.774 81.1632 194.892 81.2908C195.968 83.1634 195.434 85.5411 193.646 86.781C191.669 88.1542 188.935 87.6151 187.641 85.6007L187.061 84.6984C186.284 85.7113 185.868 86.8973 185.942 88.035L185.951 88.0294Z" fill="#F9F8F7"/>
<path d="M84.5807 51.8966C85.8977 51.5136 87.3381 50.9688 87.3783 50.4156C87.4213 49.8396 85.958 49.0508 84.6725 48.472C85.2493 44.48 87.4013 41.2909 90.0726 40.1702C89.2462 39.7162 88.351 39.441 87.4156 39.3729C87.2607 39.3615 87.1057 39.3559 86.9508 39.3559C85.0255 39.3559 83.1547 40.2298 81.6368 41.8498C79.9496 43.6515 78.9081 46.1483 78.7044 48.8778C78.5006 51.6072 79.1606 54.2289 80.5608 56.2575C81.9209 58.2266 83.8204 59.3956 85.9092 59.5488C86.7098 59.6084 87.5074 59.5119 88.2764 59.2764C86.2765 57.8719 84.8791 55.1396 84.5807 51.8995V51.8966Z" fill="white"/>
<path d="M116.84 53.2529C118.157 52.8698 119.598 52.3251 119.638 51.7718C119.661 51.4824 119.305 51.1419 118.783 50.8015C118.028 50.3078 117.377 49.973 116.932 49.8283C116.995 49.3658 117.11 48.7217 117.328 47.9698C117.561 47.1726 118.04 45.7085 119.09 44.2445C119.994 42.9848 121.11 42.0399 122.332 41.5264C121.517 41.0781 120.625 40.8 119.675 40.7291C119.52 40.7178 119.365 40.7121 119.211 40.7121C115.013 40.7121 111.363 44.8687 110.961 50.234C110.545 55.7951 113.779 60.5815 118.166 60.9022C118.978 60.9617 119.773 60.8624 120.533 60.6298C118.533 59.2253 117.136 56.493 116.838 53.2529H116.84Z" fill="white"/>
<path d="M99.9488 60.3375C98.8814 60.6638 98.3649 61.2795 98.5629 61.986C98.7781 62.7492 99.768 63.3848 100.99 63.084C101.547 62.9478 102.104 62.4173 102.287 61.8498C102.399 61.5008 102.356 61.2057 102.158 60.9759C101.886 60.644 101.49 60.417 101.088 60.3574C100.959 60.3375 100.85 60.278 100.764 60.19C100.603 60.1503 100.442 60.1106 100.282 60.068C100.213 60.1928 100.095 60.295 99.9459 60.3404L99.9488 60.3375Z" fill="#A8713F"/>
<path d="M138.512 60.3375C137.445 60.6638 136.929 61.2795 137.127 61.986C137.342 62.7492 138.332 63.3848 139.554 63.084C140.111 62.9478 140.667 62.4173 140.851 61.8498C140.966 61.5008 140.92 61.2057 140.722 60.9759C140.449 60.644 140.053 60.4198 139.652 60.3574C139.522 60.3375 139.413 60.278 139.327 60.19C139.167 60.1503 139.006 60.1106 138.845 60.068C138.776 60.1928 138.659 60.295 138.51 60.3404L138.512 60.3375Z" fill="#A8713F"/>
<path d="M69.6689 57.3215C68.6015 57.6478 68.085 58.2635 68.283 58.97C68.4982 59.7332 69.4852 60.3688 70.7104 60.068C71.2671 59.9318 71.8237 59.3984 72.0074 58.8309C72.1221 58.482 72.0762 58.1869 71.8783 57.9571C71.6057 57.6251 71.2097 57.3981 70.808 57.3385C70.6789 57.3187 70.5699 57.2591 70.4838 57.174C70.3231 57.1343 70.1624 57.0945 70.0017 57.052C69.9329 57.1768 69.8152 57.279 69.666 57.3243L69.6689 57.3215Z" fill="#A8713F"/>
<path d="M71.9586 28.9998C70.8912 29.3261 70.3747 29.9418 70.5727 30.6483C70.7879 31.4115 71.775 32.047 73.0002 31.7463C73.5568 31.6101 74.1134 31.0767 74.2971 30.5092C74.4119 30.1603 74.366 29.8652 74.168 29.6354C73.8954 29.3034 73.4994 29.0764 73.0977 29.0168C72.9686 28.997 72.8596 28.9374 72.7735 28.8523C72.6128 28.8126 72.4521 28.7728 72.2914 28.7303C72.2226 28.8551 72.1049 28.9573 71.9557 29.0026L71.9586 28.9998Z" fill="#A8713F"/>
<path d="M102.436 28.9998C101.369 29.3261 100.853 29.9418 101.051 30.6483C101.266 31.4115 102.253 32.047 103.478 31.7463C104.035 31.6101 104.591 31.0795 104.775 30.5121C104.89 30.1631 104.844 29.868 104.646 29.6382C104.373 29.3062 103.977 29.0821 103.576 29.0197C103.446 28.9998 103.337 28.9402 103.251 28.8551C103.091 28.8154 102.93 28.7757 102.769 28.7331C102.7 28.8579 102.583 28.9601 102.434 29.0055L102.436 28.9998Z" fill="#A8713F"/>
<path d="M70.4292 84.3863C69.3619 84.7126 68.8454 85.3283 69.0434 86.0348C69.2586 86.798 70.2485 87.4335 71.4708 87.1328C72.0275 86.9966 72.5841 86.466 72.7677 85.8986C72.8825 85.5496 72.8366 85.2545 72.6386 85.0247C72.366 84.6927 71.9701 84.4686 71.5684 84.4062C71.4392 84.3863 71.3302 84.3267 71.247 84.2416C71.0863 84.2019 70.9256 84.1622 70.7649 84.1196C70.6961 84.2444 70.5784 84.3466 70.4292 84.392V84.3863Z" fill="#A8713F"/>
<path d="M89.361 152.958C88.0583 152.345 86.6667 151.97 85.1948 151.573C84.1015 151.278 82.971 150.974 81.8836 150.563C78.7531 149.522 75.9785 147.485 73.2928 145.515C69.1983 142.511 65.3333 139.673 60.3666 140.142C59.5316 140.261 58.6823 140.647 58.1055 141.279C58.0768 141.316 58.0481 141.353 58.0166 141.384C57.5977 141.889 57.348 142.536 57.3997 143.325C57.48 144.88 58.3724 146.599 60.0538 148.444C65.7781 154.476 75.2813 157.128 89.0913 156.544H89.1085C90.1099 156.413 90.8645 156.121 91.2461 155.741C91.3121 155.662 91.3753 155.579 91.4326 155.497C91.4728 155.42 91.5015 155.341 91.5159 155.259C91.6077 154.671 90.9736 153.704 89.361 152.958Z" fill="#77563A"/>
<path d="M84.4688 142.718C84.0011 142.729 83.5965 142.363 83.5822 141.892C83.5679 141.421 83.9409 141.03 84.4172 141.016C85.5592 140.984 86.5491 141.05 87.4099 141.189C87.1803 140.34 86.8618 139.563 86.463 138.873C85.7571 139.952 84.5348 140.624 83.2149 140.624C82.9366 140.624 82.6525 140.593 82.3685 140.53C80.2796 140.071 78.9655 138.025 79.4303 135.959L79.5623 135.375C79.0487 135.435 78.5265 135.542 77.9928 135.698C79.4102 137.702 80.3829 140.011 81.6684 142.233C82.0385 142.88 81.0859 143.458 80.6727 142.823C79.2151 140.423 78.1362 137.852 76.4433 135.803C76.3515 135.733 76.2769 135.645 76.2195 135.54C75.4419 134.651 74.5381 133.868 73.4133 133.261C69.9587 131.182 65.4969 131.959 62.5587 134.564C61.1642 135.693 60.0538 137.089 59.2332 138.652C59.5258 138.564 59.83 138.496 60.1485 138.451C60.16 138.451 60.1714 138.448 60.1858 138.448C65.8154 137.906 70.1423 141.078 74.3229 144.145C76.9053 146.038 79.5738 147.998 82.4517 148.951C82.4632 148.954 82.4746 148.96 82.4861 148.963C83.5019 149.346 84.5463 149.627 85.6538 149.927C87.1344 150.327 88.6666 150.739 90.1013 151.414C90.8502 151.76 91.4786 152.175 91.975 152.631C92.193 150.515 91.9348 148.134 91.4843 146.372C91.4786 146.35 91.47 146.33 91.4642 146.31C91.424 146.276 91.3839 146.239 91.3408 146.211C91.2203 145.811 91.0769 145.416 90.9219 145.027C89.889 143.342 87.8316 142.616 84.4745 142.715L84.4688 142.718Z" fill="#77563A"/>
<path d="M82.3713 140.533C82.6554 140.596 82.9395 140.627 83.2178 140.627C84.5377 140.627 85.76 139.954 86.4659 138.876C85.7973 137.713 84.9078 136.794 83.8347 136.184C82.5722 135.469 81.1232 135.199 79.5652 135.378L79.4332 135.962C78.9683 138.028 80.2854 140.074 82.3713 140.533Z" fill="#77563A"/>
<path d="M26.4168 22.2925C26.3766 22.0031 26.1069 21.8045 25.8142 21.8442C24.173 22.0712 22.5633 22.6755 21.1688 23.7083C20.2076 24.4602 21.3955 25.8249 22.2907 24.9993C23.2835 24.0176 24.6034 23.277 26.0266 22.877C26.2819 22.8089 26.4541 22.562 26.4168 22.2953L26.4168 22.2925Z" fill="#332008"/>
<path d="M49.9595 48.3699L43.3802 48.1628C41.8881 48.1146 40.5396 47.2634 39.871 45.944L31.2487 28.9771C31.814 28.5203 32.2817 28.0323 32.603 27.5273C33.4294 26.3044 33.4007 25.0361 32.8211 24.0034C32.9043 23.9211 32.9761 23.8189 33.0191 23.7026C34.1525 20.7235 35.0764 17.8068 33.9602 14.89C32.8613 11.7094 27.6736 7.03928 24.3652 6.25052C23.295 5.96396 22.1358 6.11433 21.1832 6.6676C20.2765 7.1925 19.6395 8.02666 19.387 9.0197C18.925 10.6341 19.2779 12.2202 19.6624 13.758C18.5663 13.8062 17.4674 13.8686 16.3656 13.9594C13.4274 14.2119 10.406 14.7226 7.61989 15.8065C5.41913 16.7428 3.00316 17.54 1.21271 19.2339C0.136715 20.2071 -0.417063 21.9747 0.371999 23.3423C0.633107 23.8104 0.977426 24.1566 1.33322 24.4885C-0.282205 26.0746 0.153931 27.9358 1.9243 28.9005C1.73779 29.0878 1.5599 29.2835 1.40495 29.4992C0.549897 30.6539 0.845437 32.2428 1.97882 33.06C5.6458 35.6674 14.7702 31.2554 19.1459 29.2126C19.6337 30.7192 21.0024 31.8513 23.0224 31.9307C23.2089 31.9421 23.4069 31.9421 23.6106 31.9336L34.1037 53.4855C34.7263 54.7623 35.9802 55.622 37.4091 55.7497L51.0728 56.9669C51.7213 56.0816 52.5477 55.3439 53.638 54.7623C51.7529 53.0344 50.4473 50.7447 49.9624 48.3671L49.9595 48.3699ZM22.6752 30.3475C22.437 30.3021 22.1989 30.2369 21.9694 30.1517C20.4285 29.5162 20.3109 27.6209 21.1114 26.347C21.6136 25.3397 20.1416 24.5737 19.5878 25.5554C19.2492 26.171 19.0513 26.8038 18.9824 27.4194C16.8706 28.4919 14.7788 29.5502 12.6326 30.4724C10.5581 31.3633 2.68467 34.5212 2.02186 31.0427C2.04768 30.3305 2.47234 29.7205 3.10646 29.1984C3.2901 29.1417 3.4393 29.0225 3.5426 28.8721C5.12359 27.7968 7.53668 27.1159 8.80205 26.642C9.01151 26.5683 9.12629 26.3413 9.05742 26.1285C8.98569 25.9129 8.75328 25.7965 8.53521 25.8646C7.37887 26.2335 6.18811 26.5711 5.02029 27.0364C4.50669 27.2464 3.97299 27.4875 3.45652 27.7741C3.36757 27.6918 3.25566 27.6209 3.11507 27.5698C1.83822 27.1726 1.42791 26.4775 2.36044 25.4021C4.01316 23.6714 6.53529 23.0954 8.80205 22.4911C9.30418 22.3577 9.1435 21.6201 8.63276 21.6995C6.65007 22.0683 4.5239 22.4429 2.74779 23.4614C2.35183 23.1153 2.00177 22.8032 1.84396 22.528C0.564244 19.9404 6.39183 17.96 8.17654 17.0946C12.9855 15.0972 18.2995 14.9411 23.4643 14.6177C24.1357 14.5552 24.064 13.6019 23.4126 13.6133C22.7498 13.6388 22.087 13.6615 21.4213 13.6842C21.4184 13.6672 21.4184 13.653 21.4156 13.636L21.407 13.6019C21.0368 12.1322 20.6839 10.7419 21.054 9.46799C21.0569 9.45948 21.0598 9.44813 21.0626 9.43962C21.2004 8.89203 21.5533 8.42671 22.0612 8.13447C22.6178 7.81102 23.3007 7.72307 23.932 7.89614C23.9406 7.89614 23.9521 7.90182 23.9607 7.90465C26.675 8.5402 31.4524 12.8444 32.3419 15.4518C32.3448 15.4632 32.3505 15.4717 32.3534 15.483C33.2142 17.7188 32.5141 20.156 31.5787 22.6698C31.2459 22.4429 30.8728 22.2499 30.4683 22.1081C29.7854 21.8754 29.4066 22.8543 30.0752 23.1295C31.1827 23.5664 32.2186 24.5623 32.0234 25.7738C31.8369 26.608 31.3205 27.2691 30.6634 27.8138L30.4224 27.34C29.553 25.632 27.5903 24.7609 25.7253 25.2574C23.4557 25.8618 22.2161 28.2054 22.899 30.3504C22.9019 30.3645 22.9047 30.3759 22.9105 30.3901C22.833 30.3787 22.7584 30.3674 22.6809 30.3532L22.6752 30.3475Z" fill="#332008"/>
<path d="M114.132 106.143C114.281 106.038 114.427 105.924 114.571 105.808C114.43 105.924 114.284 106.038 114.132 106.143Z" fill="#332008"/>
<path d="M115.701 104.616C115.483 104.911 115.242 105.186 114.978 105.442C115.242 105.186 115.483 104.911 115.701 104.619V104.616Z" fill="#332008"/>
<path d="M158.549 50.827C158.56 51.0001 158.566 51.1731 158.563 51.3462C158.563 51.1731 158.557 51.0001 158.549 50.827Z" fill="#332008"/>
<path d="M158.411 52.7875C158.03 54.6119 156.965 56.3114 155.513 57.5286C156.965 56.3114 158.03 54.6147 158.411 52.7875Z" fill="#332008"/>
<path d="M194.897 81.288C194.897 81.288 194.889 81.271 194.886 81.2653L194.424 80.4709L184.668 63.7536C182.643 60.2808 179.406 57.6563 175.567 56.3682L160.859 51.4342C160.856 51.6356 160.847 51.8371 160.833 52.0385C160.6 54.9836 159.014 57.7244 156.684 59.5232C156.733 59.5403 156.778 59.563 156.83 59.58L171.776 64.4601C173.831 65.1297 175.558 66.537 176.62 68.3982L186.711 84.1281L187.073 84.6927L187.652 85.595C188.946 87.6123 191.681 88.1485 193.658 86.7753C195.443 85.5354 195.979 83.1578 194.903 81.2852L194.897 81.288Z" fill="#332008"/>
<path d="M89.2864 141.674C88.9163 139.79 88.1903 138.153 87.166 136.856L93.4527 108.943C92.5402 108.832 91.6507 108.608 90.8043 108.268C88.965 107.527 87.4816 106.29 86.5089 104.766C86.4372 104.948 86.374 105.132 86.331 105.328L79.9525 133.644C78.9396 133.698 77.8981 133.911 76.8479 134.28C76.0875 133.457 75.2009 132.714 74.1135 132.095C68.4839 128.716 62.0021 131.522 58.5445 136.567C57.7411 137.733 57.1271 139.018 56.6594 140.346C55.9708 141.2 55.6035 142.27 55.6781 143.424C55.7785 145.371 56.8201 147.442 58.7856 149.595C64.3463 155.454 73.0948 158.323 85.4673 158.323C86.6782 158.323 87.9264 158.295 89.2061 158.241C89.2319 158.241 89.2606 158.238 89.2864 158.232L89.3352 158.226C92.5173 157.815 93.1083 156.195 93.2145 155.517C93.2374 155.369 93.2432 155.222 93.2403 155.074C94.1298 152.126 93.7511 148.333 93.1456 145.95C92.9046 145.039 92.3049 142.797 89.2835 141.671L89.2864 141.674ZM91.4613 146.313C91.4671 146.335 91.4757 146.355 91.4814 146.375C91.929 148.137 92.1873 150.518 91.9721 152.634C91.4757 152.177 90.8444 151.763 90.0984 151.417C88.6638 150.742 87.1315 150.33 85.651 149.93C84.5434 149.632 83.499 149.351 82.4832 148.966C82.4718 148.963 82.4603 148.957 82.4488 148.954C79.5709 148.001 76.9024 146.04 74.32 144.148C70.1395 141.078 65.8125 137.909 60.1829 138.451C60.1714 138.451 60.16 138.451 60.1456 138.453C59.8271 138.499 59.523 138.567 59.2303 138.655C60.0509 137.092 61.1614 135.696 62.5558 134.566C65.494 131.962 69.9558 131.184 73.4105 133.264C74.5352 133.871 75.4419 134.652 76.2167 135.542C76.274 135.647 76.3515 135.735 76.4405 135.806C78.1334 137.855 79.2122 140.425 80.6698 142.826C81.0802 143.461 82.0328 142.88 81.6655 142.236C80.38 140.014 79.4073 137.704 77.9899 135.701C78.5236 135.545 79.0487 135.437 79.5594 135.378C81.1175 135.199 82.5665 135.469 83.829 136.184C84.9021 136.794 85.7916 137.713 86.4601 138.876C86.8561 139.566 87.1746 140.343 87.407 141.191C86.5491 141.052 85.5592 140.984 84.4143 141.018C83.938 141.033 83.565 141.424 83.5793 141.895C83.5937 142.366 83.9983 142.732 84.466 142.721C87.8231 142.619 89.8803 143.345 90.9133 145.033C91.1457 145.41 91.3236 145.839 91.4556 146.316L91.4613 146.313ZM91.2461 155.741C90.8645 156.121 90.1099 156.411 89.1085 156.541H89.0913C75.2784 157.128 65.7752 154.476 60.0538 148.444C58.3724 146.599 57.4772 144.883 57.3997 143.325C57.348 142.536 57.5977 141.887 58.0166 141.384C58.0453 141.35 58.0768 141.313 58.1055 141.279C58.6823 140.647 59.5316 140.264 60.3666 140.142C65.3305 139.671 69.1983 142.511 73.2928 145.515C75.9756 147.485 78.7531 149.522 81.8836 150.563C82.971 150.974 84.1015 151.278 85.1948 151.573C86.6667 151.97 88.0583 152.345 89.361 152.958C90.9736 153.704 91.6077 154.674 91.5159 155.259C91.5044 155.341 91.4757 155.42 91.4326 155.497C91.3867 155.582 91.3236 155.664 91.2461 155.741Z" fill="#332008"/>
<path d="M146.581 124.86C144.346 125.002 141.247 126.528 139.433 127.91C138.148 128.566 137.238 129.686 136.61 131.096L126.765 127.082C125.385 126.52 124.427 125.254 124.269 123.785L122.78 109.981C120.708 109.142 118.878 107.731 117.572 105.924C116.737 107.056 115.618 107.987 114.358 108.642L116.189 128.844C116.318 130.257 117.185 131.496 118.479 132.112L135.425 139.611C135.474 141.038 135.6 142.471 135.769 143.839C134.338 144.199 133.089 144.942 132.048 146.072C130.518 147.763 129.764 150.379 130.034 153.065C130.303 155.758 131.52 158.09 133.379 159.466C135.864 161.299 138.928 161.674 142.119 161.923C142.859 161.975 143.568 162 144.254 162C152.004 162 156.271 158.723 158.348 151.326C160.138 144.937 161.783 136.731 158.566 129.956C156.199 124.948 151.18 124.571 146.584 124.86H146.581ZM156.024 129.11C156.403 129.567 156.727 130.089 157.005 130.676C159.981 136.95 158.397 144.764 156.687 150.869C154.635 158.173 150.584 160.797 142.245 160.227C139.213 159.991 136.53 159.668 134.409 158.104C132.94 157.015 131.967 155.117 131.747 152.898C131.526 150.676 132.117 148.548 133.328 147.212C136.191 144.1 140.716 145.359 144.007 146.96C144.432 147.167 144.948 146.994 145.161 146.571C145.37 146.148 145.195 145.64 144.768 145.43C142.05 144.108 139.603 143.495 137.477 143.589C137.336 142.443 137.236 141.356 137.178 140.332C139.035 140.842 140.4 139.716 141.187 137.826L141.436 137.052C142.076 135.057 141.063 132.909 139.106 132.109L138.194 131.738C138.708 130.614 139.399 129.822 140.266 129.394C140.865 129.15 141.476 129.167 142.076 129.451C143.037 129.902 143.89 130.98 144.251 132.2L144.263 132.234C145.126 134.773 144.443 137.619 143.66 140.065C143.516 140.513 143.769 140.993 144.222 141.132C144.676 141.274 145.161 141.024 145.301 140.576C146.165 137.869 146.914 134.703 145.898 131.704C145.396 130.021 144.217 128.568 142.814 127.913C142.779 127.899 142.748 127.887 142.713 127.873C144.07 127.172 145.559 126.631 146.693 126.557C149.78 126.361 152.07 126.611 153.771 127.391C154.681 127.808 155.421 128.375 156.024 129.107L156.024 129.11Z" fill="#332008"/>
<path d="M156.529 45.91L156.001 45.2886H147.115C144.661 45.2886 142.722 44.2899 140.989 43.2117C136.84 40.627 134.449 38.6295 131.265 33.6217C130.541 32.484 130.114 31.3264 129.704 30.2057C129.365 29.2864 129.047 28.4182 128.576 27.5755C128.163 26.835 126.731 26.6874 124.235 26.4888C123.23 26.4094 122.091 26.3186 120.823 26.154L120.588 26.1228C117.908 25.7795 116.433 25.5894 113.699 24.7184C111.024 23.8643 108.875 22.3209 107.954 20.5873C107.002 18.8026 106.614 13.7892 106.557 12.955C106.112 10.5717 104.063 8.74449 101.346 8.23945C101.119 8.19689 100.887 8.16001 100.652 8.13731C100.488 8.12029 100.325 8.11461 100.158 8.11178C100.141 8.11178 100.127 8.11178 100.109 8.11178C97.4066 8.0834 94.7467 9.81982 93.7654 12.3166C93.599 12.7422 93.1916 13.0259 92.7296 13.0401C92.2676 13.0571 91.8458 12.7933 91.6536 12.379C90.173 9.18994 86.6581 6.96268 83.1088 6.95984C83.1088 6.95984 83.1059 6.95984 83.103 6.95984H83.0973C82.0242 6.95984 80.9539 7.16696 79.9439 7.54148C77.6083 8.40401 75.5825 10.1603 74.5496 12.3904C74.3832 12.7507 74.036 13.0004 73.6371 13.0458L73.2039 13.094C73.1551 13.0997 73.1063 13.1025 73.0575 13.1025C72.7161 13.0969 72.3919 12.9437 72.1767 12.6741C70.8797 11.0625 68.8798 10.0922 66.7967 9.85103C66.5126 9.81698 66.2257 9.79712 65.9416 9.79144C65.4022 9.78009 64.8599 9.82265 64.332 9.91345C63.2674 10.095 62.246 10.4837 61.3565 11.0909C60.5359 11.6527 59.853 12.3819 59.3221 13.2132C59.1241 13.5253 58.9462 13.8516 58.7884 14.1892C58.6851 14.4134 58.5905 14.6432 58.5072 14.8758C58.4642 14.9922 58.4269 15.1113 58.3896 15.2277C58.2404 15.7015 58.1342 16.1895 58.0711 16.6804C58.0395 16.9272 58.0166 17.174 58.0051 17.4209C57.9994 17.5457 57.9965 17.6677 57.9965 17.7926C57.9965 18.0394 58.008 18.2863 58.0309 18.5303C58.0424 18.6523 58.0568 18.7743 58.074 18.8963C58.14 19.3843 58.2519 19.8638 58.4126 20.3263C58.5732 20.7887 58.777 21.237 59.0323 21.6626C59.1901 21.9236 59.2332 22.2329 59.1586 22.528C59.084 22.8231 58.8917 23.0727 58.6249 23.226C58.3121 23.4047 58.0195 23.592 57.7469 23.7877C55.8216 25.1525 54.7915 26.9002 54.6021 29.0991C54.4156 31.2696 55.1358 33.4799 56.5274 35.1595C56.8488 35.5482 57.2046 35.9057 57.5948 36.2292C57.8989 36.4817 58.0482 36.8733 57.9908 37.262C57.9334 37.6507 57.6751 37.9826 57.3107 38.1387C56.5877 38.4479 55.9191 38.865 55.3137 39.3729C55.1616 39.5006 55.0153 39.6311 54.8747 39.7701C54.5906 40.0453 54.3238 40.3404 54.077 40.6525C53.9536 40.8086 53.8331 40.9703 53.7212 41.1348C53.4945 41.4668 53.2851 41.813 53.1014 42.1733C52.5448 43.2571 52.189 44.4715 52.0828 45.7369C52.0082 46.625 52.1115 47.5443 52.3583 48.4465C52.9695 50.6766 54.4816 52.8046 56.5331 54.1182C56.9062 54.3594 57.107 54.7907 57.0468 55.2276C56.9865 55.6645 56.6737 56.0249 56.2462 56.1554C55.3883 56.4164 54.648 56.737 54.0024 57.2307C52.803 58.15 51.9451 59.6736 51.3167 62.5308C50.6195 65.7057 51.9652 69.431 54.6681 71.803C54.9464 72.047 55.087 72.4101 55.0468 72.7733C55.0067 73.1365 54.7886 73.4628 54.4644 73.6415C51.5491 75.2503 49.7644 78.3599 50.0284 81.3788C50.278 84.1792 51.8131 86.3809 54.1287 87.2633C54.2119 87.2945 54.2951 87.3257 54.3812 87.3541C54.3955 87.3598 54.407 87.3626 54.4213 87.3683C54.9091 87.5499 55.394 87.7854 55.6752 88.2649C56.2147 89.1529 55.5461 90.0552 55.2936 90.3985C52.8576 93.6699 53.3425 97.6988 56.5188 100.669C56.6221 100.766 56.7311 100.857 56.8373 100.947C57.1615 101.217 57.4972 101.461 57.8444 101.677C58.1916 101.892 58.5503 102.08 58.9176 102.238C59.5287 102.505 60.1657 102.69 60.8142 102.792C61.2044 102.854 61.5975 102.882 61.9935 102.882C62.1255 102.882 62.2574 102.88 62.3894 102.871C64.418 102.761 66.3175 101.81 67.7407 100.193C67.7493 100.184 67.7579 100.176 67.7637 100.167C67.9846 99.9317 68.2916 99.7984 68.6158 99.8012C68.6646 99.8012 68.7105 99.8041 68.7593 99.8097C69.1409 99.8608 69.4738 100.099 69.6402 100.442C69.6402 100.442 69.6402 100.445 69.6431 100.448C70.983 103.192 75.0718 106.338 78.1276 106.327C78.2252 106.327 78.3227 106.324 78.4203 106.316C80.7932 106.14 82.8477 105.138 84.1675 103.606C84.6926 102.999 85.0972 102.307 85.3612 101.552C85.3841 101.489 85.41 101.43 85.43 101.365C85.5879 100.865 86.0756 100.536 86.5978 100.567C87.1201 100.599 87.5533 100.979 87.6538 101.484C87.6538 101.489 87.6566 101.495 87.6566 101.501C87.7456 101.986 87.8948 102.451 88.0985 102.891C88.2161 103.146 88.3539 103.393 88.5088 103.632C89.2233 104.724 90.3136 105.601 91.6909 106.157C92.414 106.449 93.1772 106.628 93.9634 106.701C94.0495 106.71 94.1356 106.721 94.2216 106.727C94.434 106.741 94.6434 106.747 94.8529 106.744C97.2315 106.719 99.3434 105.703 100.583 104.068C100.97 103.558 101.277 102.99 101.472 102.369C101.521 102.216 101.602 102.082 101.705 101.966C101.934 101.705 102.279 101.552 102.643 101.575C102.987 101.597 103.292 101.77 103.487 102.031C103.59 102.17 103.667 102.332 103.699 102.511C103.808 103.124 104.023 103.7 104.327 104.227C105.317 105.947 107.257 107.153 109.616 107.382C109.796 107.399 109.974 107.411 110.155 107.411C111.578 107.425 112.993 106.948 114.155 106.128C114.757 105.706 115.291 105.189 115.724 104.602C116.043 104.171 116.304 103.702 116.502 103.206C116.611 102.928 116.823 102.712 117.084 102.59C117.225 102.525 117.377 102.485 117.535 102.482C117.546 102.482 117.558 102.482 117.569 102.482C117.827 102.482 118.071 102.57 118.267 102.721C118.41 102.831 118.53 102.973 118.611 103.144C118.898 103.762 119.265 104.344 119.69 104.883C120.456 105.85 121.426 106.667 122.507 107.286C123.925 108.095 125.537 108.563 127.159 108.563H127.164C129.511 108.563 131.836 107.584 133.574 106.004C134.26 105.379 134.851 104.664 135.319 103.876C135.462 103.634 135.597 103.388 135.715 103.132C135.881 102.772 136.228 102.522 136.627 102.477L137.061 102.429C137.109 102.423 137.158 102.42 137.207 102.423C137.548 102.429 137.873 102.582 138.088 102.851C138.211 103.007 138.346 103.155 138.484 103.297C139.098 103.935 139.827 104.457 140.63 104.849C141.769 105.408 143.049 105.708 144.326 105.734C145.953 105.765 147.579 105.345 148.914 104.434C149.465 104.057 149.952 103.603 150.374 103.095C150.899 102.465 151.321 101.75 151.634 100.987C152.558 98.7259 152.518 96.0447 151.287 93.9422L150.678 93.2329C150.432 92.9464 150.345 92.5577 150.449 92.1945C150.549 91.8313 150.828 91.5448 151.186 91.4227C154.113 90.4439 156.339 87.6321 156.595 84.5877C156.853 81.5434 155.129 78.4053 152.406 76.9611C151.978 76.7342 151.743 76.266 151.815 75.7922C151.886 75.3184 152.251 74.941 152.727 74.8474C155.823 74.2402 158.357 71.21 158.377 68.089C158.397 64.968 155.898 61.9065 152.807 61.2653C152.294 61.1575 151.921 60.7234 151.898 60.2042C151.875 59.6878 152.208 59.2196 152.71 59.0693C153.441 58.848 154.136 58.5103 154.776 58.0847C156.873 56.6916 158.368 54.3339 158.563 51.8569C158.589 51.5136 158.592 51.1646 158.569 50.8185C158.463 49.0679 157.754 47.3229 156.549 45.9015L156.529 45.91ZM138.171 59.2537C138.472 59.1601 138.796 59.3275 138.888 59.6282C138.937 59.7814 138.914 59.9375 138.845 60.0652C139.006 60.1077 139.167 60.1474 139.327 60.1872C139.207 60.0652 139.141 59.8892 139.169 59.7077C139.218 59.3984 139.514 59.1856 139.824 59.231C140.509 59.3331 141.158 59.7048 141.603 60.2439C142.056 60.766 142.179 61.4639 141.944 62.1903C141.64 63.1294 140.771 63.9494 139.832 64.1821C139.525 64.2587 139.23 64.2927 138.943 64.2927C137.465 64.2927 136.32 63.3564 136.019 62.2896C135.735 61.2795 136.125 59.8779 138.171 59.2537ZM109.245 50.1063C109.73 43.609 114.459 38.638 119.802 39.0296C125.136 39.4183 129.081 45.0219 128.596 51.5221C128.128 57.7811 123.718 62.6215 118.628 62.6215C118.433 62.6215 118.238 62.6159 118.04 62.5988C112.706 62.2101 108.76 56.6065 109.245 50.1063ZM102.098 27.916C102.399 27.8223 102.721 27.9897 102.815 28.2905C102.864 28.4437 102.841 28.5998 102.772 28.7274C102.933 28.77 103.094 28.8097 103.254 28.8494C103.134 28.7274 103.068 28.5515 103.096 28.3699C103.145 28.0607 103.438 27.8479 103.751 27.8933C104.436 27.9954 105.085 28.3671 105.53 28.9062C105.983 29.4282 106.106 30.1262 105.871 30.8526C105.567 31.7917 104.698 32.6117 103.759 32.8443C103.452 32.9209 103.157 32.955 102.87 32.955C101.392 32.955 100.247 32.0187 99.9459 30.9519C99.6619 29.9418 100.052 28.5402 102.098 27.916ZM99.6102 59.2537C99.9115 59.1601 100.233 59.3275 100.328 59.6282C100.376 59.7814 100.353 59.9375 100.284 60.0652C100.445 60.1077 100.606 60.1474 100.767 60.1872C100.646 60.0652 100.58 59.8892 100.609 59.7077C100.658 59.3984 100.953 59.1856 101.263 59.231C101.949 59.3331 102.597 59.7048 103.042 60.2439C103.495 60.766 103.619 61.4639 103.383 62.1903C103.079 63.1294 102.21 63.9494 101.272 64.1821C100.965 64.2587 100.669 64.2927 100.382 64.2927C98.9044 64.2927 97.7595 63.3564 97.4582 62.2896C97.1742 61.2795 97.5644 59.8779 99.6102 59.2537ZM76.9885 48.7529C77.2209 45.6404 78.4232 42.7776 80.3743 40.6922C82.3742 38.5558 84.925 37.4804 87.5419 37.6734C90.1644 37.8635 92.523 39.2963 94.1843 41.6995C95.8055 44.0459 96.5687 47.0506 96.3363 50.1631C96.1039 53.2756 94.9017 56.1384 92.9505 58.2238C91.1027 60.1985 88.79 61.2625 86.3798 61.2625C86.1818 61.2625 85.9809 61.254 85.783 61.2398C83.1604 61.0497 80.8018 59.6169 79.1405 57.2137C77.5193 54.8673 76.7561 51.8626 76.9885 48.7501V48.7529ZM71.62 27.916C71.9213 27.8223 72.2455 27.9897 72.3373 28.2905C72.3861 28.4437 72.3632 28.5998 72.2943 28.7274C72.455 28.77 72.6157 28.8097 72.7764 28.8494C72.6558 28.7274 72.5898 28.5515 72.6185 28.3699C72.6673 28.0607 72.96 27.8479 73.2727 27.8933C73.9585 27.9954 74.607 28.3671 75.0517 28.9062C75.5051 29.4282 75.6284 30.1234 75.3932 30.8526C75.089 31.7945 74.2196 32.6117 73.2813 32.8443C72.9743 32.9209 72.6788 32.955 72.3919 32.955C70.9142 32.955 69.7693 32.0187 69.468 30.9519C69.184 29.9418 69.5742 28.5402 71.62 27.916ZM67.9387 86.3383C67.6546 85.3283 68.0449 83.9267 70.0907 83.3025C70.392 83.2088 70.7133 83.3762 70.808 83.677C70.8568 83.8302 70.8338 83.9862 70.765 84.1139C70.9256 84.1565 71.0863 84.1962 71.247 84.2359C71.1265 84.1139 71.0605 83.938 71.0892 83.7564C71.138 83.4472 71.4306 83.2315 71.7434 83.2798C72.4292 83.3819 73.0776 83.7536 73.5224 84.2927C73.9757 84.8147 74.0991 85.5099 73.8638 86.239C73.5597 87.181 72.6903 87.9981 71.752 88.2308C71.445 88.3074 71.1495 88.3415 70.8625 88.3415C69.3848 88.3415 68.24 87.4052 67.9387 86.3383ZM69.3303 56.2377C69.6316 56.144 69.9529 56.3114 70.0476 56.6122C70.0964 56.7654 70.0735 56.9215 70.0046 57.0491C70.1653 57.0917 70.326 57.1314 70.4866 57.1711C70.3661 57.0491 70.3001 56.8732 70.3288 56.6916C70.3776 56.3824 70.6731 56.1696 70.983 56.215C71.6688 56.3171 72.3173 56.6888 72.762 57.2279C73.2154 57.7499 73.3387 58.4451 73.1035 59.1743C72.7993 60.1162 71.9299 60.9334 70.9916 61.166C70.6846 61.2426 70.3891 61.2767 70.1021 61.2767C68.6245 61.2767 67.4796 60.3404 67.1783 59.2736C66.8942 58.2635 67.2845 56.8619 69.3303 56.2377ZM81.4847 67.6946C80.7789 68.8182 79.8148 69.7828 78.6585 70.4609C77.8608 70.9404 76.9942 71.2951 76.0732 71.5136C75.6112 71.6214 75.1464 71.3405 75.0374 70.8837C74.9226 70.4127 75.2325 69.9417 75.7117 69.8509C76.4462 69.7091 77.1779 69.4452 77.8436 69.082C79.8865 67.9925 81.2638 65.8532 81.4761 63.572C81.5708 62.7407 82.8075 62.8287 82.7788 63.6685C82.7386 64.4459 82.5808 65.212 82.3254 65.944C87.7513 69.2409 93.9261 71.3802 100.198 72.1264C109.65 73.2528 117.483 71.1078 122.39 69.1076C122.487 69.0678 122.591 69.048 122.691 69.0451C121.767 67.0477 121.985 65.1382 122.097 64.5112C122.177 64.0487 122.625 63.7366 123.093 63.8189C123.56 63.8983 123.876 64.3409 123.793 64.8034C123.687 65.4049 123.454 67.5159 124.9 69.4026C126.654 71.6866 129.431 71.732 129.755 71.7235H129.764C130.234 71.7235 130.619 72.0981 130.625 72.5662C130.63 73.0372 130.249 73.4202 129.772 73.4259C129.758 73.4259 129.744 73.4259 129.729 73.4259C128.981 73.4259 125.698 73.2557 123.532 70.4326C123.506 70.3985 123.483 70.3645 123.457 70.3276C123.397 70.4297 123.314 70.5234 123.207 70.5971C119.452 73.1677 115.851 75.2957 112.671 77.1711C110.976 78.1727 109.372 79.1175 107.839 80.0736C105.369 81.6114 103.022 83.0726 100.138 83.0726C99.8455 83.0726 99.5471 83.0584 99.2401 83.0244C96.7466 82.7662 94.6865 81.4667 90.7612 77.6846C90.4427 77.3782 90.1128 77.0633 89.7684 76.7342C87.4185 74.4956 84.5233 71.7349 81.479 67.6946H81.4847ZM93.7797 84.9481C92.8271 84.2927 93.7912 82.8967 94.7553 83.5465C96.3076 84.6672 98.2272 85.2971 100.155 85.2658C102.373 85.2318 104.56 84.3267 106.235 82.8854C106.459 82.6896 106.804 82.7095 106.999 82.9308C107.188 83.1464 107.171 83.4699 106.967 83.6628C106.115 84.4714 105.139 85.1325 104.078 85.6489C100.835 87.2519 96.7868 86.9455 93.7797 84.9453V84.9481ZM137.345 90.1999C137.038 90.2765 136.742 90.3105 136.455 90.3105C134.977 90.3105 133.833 89.3742 133.531 88.3074C133.247 87.2973 133.637 85.8957 135.683 85.2715C135.985 85.1779 136.309 85.3453 136.401 85.646C136.449 85.7993 136.426 85.9553 136.358 86.083C136.518 86.1255 136.679 86.1653 136.84 86.205C136.719 86.083 136.653 85.9071 136.682 85.7255C136.731 85.4162 137.023 85.2034 137.336 85.2488C138.022 85.351 138.67 85.7226 139.115 86.2617C139.568 86.7838 139.692 87.4818 139.456 88.2081C139.152 89.1472 138.283 89.9672 137.345 90.1999Z" fill="#EAC69B"/>
<path d="M203.063 86.3781C202.92 86.2759 202.759 86.2192 202.596 86.1965C202.702 85.612 202.736 85.0247 202.688 84.4544C202.55 82.8712 201.804 81.515 200.51 80.5191C199.015 79.4182 196.662 79.004 193.887 79.3473C193.85 79.353 193.813 79.3586 193.775 79.3615L194.424 80.4737L194.886 81.2681C194.886 81.2681 194.894 81.2851 194.897 81.2908C196.78 81.1631 198.349 81.4639 199.264 82.1363C200.088 82.769 200.553 83.6089 200.639 84.6275C200.759 86.0234 200.142 87.6435 199.023 88.855C198.642 89.2693 198.67 89.9133 199.092 90.2907C199.511 90.668 200.163 90.6397 200.544 90.2226C201.135 89.5814 201.614 88.8635 201.973 88.1088C205.227 90.5091 209.445 95.6418 208.894 99.8154C208.753 100.349 208.38 100.774 207.936 100.905C207.913 100.913 207.89 100.919 207.867 100.928C207.804 100.95 207.611 100.97 207.485 100.982C207.439 100.987 207.387 100.99 207.333 100.996C207.02 100.488 206.693 99.9941 206.334 99.5061C206.073 99.2394 205.798 98.5698 205.313 98.7344C205.104 98.8195 205 99.0579 205.086 99.265C205.408 100.108 205.574 101.047 205.718 101.949C205.689 102.011 205.663 102.074 205.643 102.145C205.617 102.23 205.591 102.318 205.565 102.406C205.433 102.868 205.353 103.149 204.957 103.433C204.487 103.771 203.798 103.609 203.525 103.524C203.511 103.518 203.497 103.515 203.482 103.512C203.333 103.473 203.19 103.453 203.052 103.441C203.035 103.402 203.015 103.365 202.997 103.325C202.71 102.741 202.418 102.168 202.082 101.609C201.901 101.322 201.741 101.047 201.442 100.743C201.339 100.638 201.178 100.601 201.032 100.661C200.8 100.752 200.745 101.024 200.863 101.228C201.213 102.247 201.302 103.461 201.405 104.554C201.399 104.565 201.393 104.574 201.391 104.585C201.382 104.608 201.376 104.627 201.368 104.65C201.241 105.062 200.871 106.04 200.097 106.208C199.712 106.304 199.282 106.236 198.782 106.157C198.326 106.086 197.813 106.004 197.27 106.055C197.23 106.055 197.196 106.066 197.156 106.069C197.141 106.004 197.127 105.941 197.112 105.876C196.935 105.257 196.326 102.465 195.422 102.812C195.138 102.908 195.004 103.226 195.121 103.495C195.402 104.46 195.365 105.561 195.293 106.582C194.903 106.724 194.521 106.849 194.117 106.877C193.095 106.971 192.034 106.509 191.411 105.697C191.403 105.689 191.397 105.677 191.388 105.669C191.098 105.317 190.912 104.835 190.72 104.324C190.499 103.745 190.249 103.087 189.807 102.522C189.368 101.935 188.814 101.532 188.278 101.146C187.911 100.882 187.563 100.633 187.251 100.315C185.021 98.1669 185.426 94.9608 186.952 92.8641C188.02 93.3719 189.228 93.5195 190.433 93.2868C190.797 93.2159 191.161 93.1109 191.523 92.9691C192.051 92.7619 192.309 92.1746 192.103 91.6526C191.893 91.1305 191.296 90.8752 190.771 91.0794C189.621 91.5277 188.421 91.4398 187.48 90.8383C186.565 90.2509 186.011 89.2352 185.957 88.0294C185.885 86.8916 186.298 85.7085 187.076 84.6927L186.714 84.1281L185.916 82.8854C184.531 84.3835 183.784 86.2703 183.902 88.1372C183.962 89.4934 184.465 90.7191 185.308 91.6497C182.918 94.8785 183.102 99.1543 185.799 101.753C186.215 102.173 186.668 102.499 187.067 102.789C187.515 103.112 187.902 103.39 188.166 103.745C188.433 104.088 188.611 104.551 188.797 105.039C189.03 105.646 189.291 106.335 189.787 106.943C190.846 108.31 192.576 109.059 194.283 108.903C195.032 108.852 195.655 108.619 196.209 108.415C196.656 108.248 197.044 108.103 197.419 108.08C197.431 108.08 197.445 108.08 197.457 108.078C197.741 108.049 198.091 108.106 198.461 108.163C199.044 108.256 199.701 108.358 200.398 108.222C200.455 108.211 200.51 108.2 200.567 108.185C201.755 107.93 202.713 106.98 203.233 105.552C204.326 105.811 205.382 105.643 206.168 105.081C207.109 104.409 207.37 103.586 207.531 103.022C207.583 103.016 207.637 103.01 207.683 103.007C207.938 102.985 208.254 102.953 208.564 102.843C209.712 102.488 210.61 101.495 210.908 100.241C210.917 100.21 210.922 100.179 210.925 100.147C211.683 94.7963 206.507 88.8607 203.066 86.3781H203.063Z" fill="#42210B"/>
<path d="M85.783 61.2426C85.9838 61.2568 86.1818 61.2653 86.3798 61.2653C88.7871 61.2653 91.1027 60.2014 92.9505 58.2266C94.9017 56.1412 96.1039 53.2784 96.3363 50.1659C96.5687 47.0534 95.8055 44.0459 94.1843 41.7023C92.523 39.2963 90.1644 37.8663 87.5419 37.6762C84.9222 37.4833 82.3742 38.5558 80.3743 40.6951C78.4232 42.7805 77.2209 45.6433 76.9885 48.7558C76.7561 51.8683 77.5193 54.8758 79.1405 57.2194C80.8018 59.6254 83.1604 61.0554 85.783 61.2455V61.2426ZM78.7044 48.8778C78.9081 46.1483 79.9496 43.6515 81.6368 41.8498C83.1518 40.2298 85.0226 39.3559 86.9508 39.3559C87.1057 39.3559 87.2607 39.3615 87.4156 39.3729C88.351 39.441 89.2462 39.7134 90.0726 40.1702C87.3984 41.2909 85.2493 44.48 84.6725 48.472C85.958 49.0508 87.4213 49.8396 87.3783 50.4156C87.3381 50.9688 85.8949 51.5136 84.5807 51.8966C84.8791 55.1368 86.2765 57.8691 88.2764 59.2736C87.5074 59.5091 86.7098 59.6055 85.9092 59.5459C83.8204 59.3927 81.9209 58.2238 80.5608 56.2547C79.1606 54.226 78.5006 51.6044 78.7044 48.8749V48.8778Z" fill="#42210B"/>
<path d="M118.043 62.5988C118.241 62.613 118.436 62.6215 118.631 62.6215C123.721 62.6215 128.131 57.7812 128.599 51.5221C129.084 45.0248 125.139 39.4211 119.804 39.0296C114.462 38.638 109.733 43.609 109.248 50.1063C108.763 56.6037 112.709 62.2073 118.043 62.5988ZM110.964 50.234C111.366 44.8687 115.016 40.7121 119.213 40.7121C119.368 40.7121 119.523 40.7178 119.678 40.7291C120.625 40.7972 121.52 41.0781 122.335 41.5264C121.11 42.0399 119.997 42.9819 119.093 44.2445C118.043 45.7085 117.564 47.1726 117.331 47.9698C117.113 48.7217 116.998 49.3658 116.935 49.8283C117.38 49.973 118.034 50.3078 118.786 50.8015C119.308 51.1419 119.661 51.4852 119.641 51.7718C119.601 52.3251 118.157 52.8698 116.843 53.2529C117.142 56.493 118.539 59.2253 120.539 60.6298C119.779 60.8624 118.984 60.9617 118.172 60.9022C113.785 60.5815 110.551 55.7951 110.967 50.234H110.964Z" fill="#42210B"/>
<path d="M129.758 71.7178C129.434 71.7264 126.656 71.681 124.903 69.397C123.457 67.513 123.69 65.4021 123.796 64.7977C123.879 64.3353 123.563 63.8926 123.096 63.8132C122.628 63.7338 122.18 64.043 122.1 64.5055C121.988 65.1325 121.77 67.042 122.694 69.0395C122.593 69.0423 122.49 69.0622 122.393 69.1019C117.486 71.0993 109.653 73.2443 100.201 72.1207C93.9289 71.3745 87.7513 69.2352 82.3283 65.9383C82.5837 65.2063 82.7415 64.4402 82.7817 63.6628C82.8103 62.823 81.5737 62.735 81.479 63.5664C81.2667 65.8475 79.8894 67.9868 77.8464 69.0763C77.1807 69.4424 76.4491 69.7062 75.7145 69.8452C75.2354 69.936 74.9255 70.4099 75.0402 70.878C75.1493 71.3348 75.6141 71.6185 76.0761 71.5079C76.9971 71.2923 77.8636 70.9348 78.6613 70.4553C79.8177 69.7772 80.7817 68.8125 81.4876 67.6889C84.5291 71.7292 87.4271 74.4899 89.7771 76.7285C90.1214 77.0548 90.4513 77.3726 90.7698 77.679C94.6951 81.4611 96.7552 82.7605 99.2487 83.0187C99.5528 83.0499 99.8512 83.067 100.147 83.067C103.03 83.067 105.378 81.6058 107.848 80.068C109.38 79.1146 110.984 78.167 112.68 77.1654C115.859 75.29 119.46 73.162 123.216 70.5915C123.322 70.5205 123.403 70.4269 123.466 70.3219C123.492 70.356 123.512 70.39 123.54 70.4269C125.71 73.25 128.989 73.4202 129.738 73.4202C129.755 73.4202 129.77 73.4202 129.781 73.4202C130.257 73.4145 130.639 73.0315 130.633 72.5605C130.628 72.0924 130.243 71.7178 129.772 71.7178H129.758Z" fill="#42210B"/>
<path d="M106.235 82.8854C104.563 84.3239 102.373 85.229 100.155 85.2658C98.2272 85.2942 96.3076 84.6672 94.7553 83.5465C93.7912 82.8967 92.8271 84.2955 93.7797 84.9481C96.7868 86.9455 100.835 87.2548 104.078 85.6517C105.139 85.1353 106.115 84.4771 106.967 83.6656C107.171 83.4699 107.188 83.1464 106.999 82.9336C106.801 82.7095 106.459 82.6896 106.235 82.8882V82.8854Z" fill="#42210B"/>
<path d="M100.379 64.2955C100.663 64.2955 100.962 64.2615 101.269 64.1849C102.207 63.9522 103.076 63.1351 103.38 62.1931C103.616 61.4639 103.492 60.7688 103.039 60.2467C102.594 59.7048 101.946 59.336 101.26 59.2338C100.95 59.1884 100.655 59.3984 100.606 59.7105C100.577 59.8921 100.643 60.068 100.764 60.19C100.847 60.2751 100.959 60.3375 101.088 60.3574C101.49 60.417 101.886 60.644 102.158 60.9759C102.356 61.2057 102.399 61.5008 102.287 61.8498C102.104 62.4173 101.547 62.9478 100.99 63.084C99.7651 63.3848 98.7781 62.7492 98.5629 61.986C98.3649 61.2795 98.8814 60.6638 99.9488 60.3375C100.098 60.2921 100.216 60.19 100.284 60.0652C100.356 59.9346 100.376 59.7786 100.328 59.6282C100.233 59.3275 99.9115 59.1601 99.6102 59.2537C97.5673 59.8779 97.1742 61.2795 97.4582 62.2896C97.7595 63.3564 98.9044 64.2927 100.382 64.2927L100.379 64.2955Z" fill="#42210B"/>
<path d="M165.582 38.7373C165.363 38.4792 165.042 38.3316 164.704 38.3316H155.281C153.315 38.3316 151.72 37.4407 150.377 36.6037C146.455 34.1637 144.34 32.3904 141.373 27.7259C140.779 26.7924 140.415 25.7965 140.025 24.7411C139.672 23.7792 139.304 22.7862 138.748 21.7903C137.718 19.9489 135.563 19.7758 132.582 19.5375C131.603 19.4609 130.493 19.3701 129.282 19.2169L129.047 19.1857C126.421 18.848 125.101 18.6806 122.568 17.872C120.482 17.2052 118.789 16.0448 118.149 14.8446C117.581 13.7778 117.147 10.1149 117.007 8.05503C117.007 8.01531 116.998 7.97559 116.993 7.93586C116.356 4.30982 113.162 1.60022 109.045 1.19449C105.908 0.882393 102.689 2.41736 100.838 4.92551C98.6662 1.918 95.0451 0 91.2691 0H91.2634C87.5591 0 84.0069 1.85274 81.8262 4.76663C81.3843 4.8177 80.9482 4.8943 80.5178 4.99361C77.0545 2.34075 71.8783 2.02865 68.2141 4.53397C67.0607 5.32273 66.1195 6.34983 65.4108 7.51311C63.5142 7.57837 61.6405 8.13447 60.0509 9.22115C56.0626 11.9478 54.5964 17.5088 56.5446 21.8414C53.9852 23.6061 52.562 25.9781 52.3095 28.9005C52.0628 31.7548 53.0527 34.663 54.9407 36.8193C52.0628 38.6551 50.0944 41.9208 49.7874 45.544C49.707 46.4803 49.7759 47.4308 49.9682 48.3671C50.4531 50.7447 51.7586 53.0344 53.6437 54.7623C52.5534 55.3439 51.727 56.0845 51.0786 56.9669C50.0829 58.3231 49.5062 60.0226 49.0614 62.0456C48.2896 65.5524 49.4918 69.5729 52.0828 72.4584C49.1447 74.6346 47.4288 78.1358 47.7272 81.5717C48.0543 85.229 50.103 88.1287 53.2133 89.3487C50.3412 93.4854 51.0097 98.6521 54.9349 102.324C57.0812 104.284 59.7726 105.286 62.5013 105.138C64.6533 105.022 66.6877 104.193 68.3547 102.772C70.567 105.941 74.9312 108.849 78.5781 108.585C81.8549 108.344 84.6754 106.823 86.3568 104.52C86.4056 104.602 86.463 104.681 86.5146 104.761C87.4873 106.284 88.9708 107.521 90.81 108.262C91.6565 108.602 92.5459 108.829 93.4584 108.937C93.6592 108.96 93.8572 108.983 94.0609 108.994C97.464 109.207 100.571 107.825 102.379 105.473C103.745 107.76 106.301 109.343 109.372 109.647C111.093 109.817 112.835 109.431 114.364 108.634C115.624 107.978 116.743 107.048 117.578 105.916C118.883 107.723 120.714 109.133 122.786 109.973C124.16 110.532 125.641 110.841 127.147 110.841H127.156C130.86 110.841 134.412 108.988 136.593 106.074C137.035 106.023 137.471 105.947 137.901 105.847C141.362 108.5 146.541 108.812 150.205 106.307C151.358 105.518 152.299 104.491 153.008 103.328C154.905 103.263 156.778 102.707 158.368 101.62C162.583 98.7401 163.98 92.691 161.51 88.2762C164.551 86.6731 166.746 83.4982 167.033 80.0935C167.297 76.9498 165.926 73.7323 163.564 71.6214C166.603 70.0978 168.769 66.886 168.821 63.4898L166.491 62.7294C166.517 62.9535 166.531 63.1805 166.531 63.4075C166.511 66.5285 163.978 69.5615 160.882 70.1659C160.658 70.2084 160.46 70.3191 160.302 70.4695C160.529 69.7062 160.658 68.9118 160.661 68.106C160.681 64.8403 158.732 61.7136 155.915 60.0708C156.182 59.9006 156.44 59.7133 156.692 59.5204C159.025 57.7216 160.609 54.9808 160.841 52.0357C160.859 51.8342 160.864 51.6328 160.867 51.4313C160.905 48.9515 159.986 46.4377 158.296 44.4459L157.424 43.4189C157.206 43.1607 156.885 43.0131 156.546 43.0131H147.123C145.158 43.0131 143.562 42.1222 142.22 41.2852C138.297 38.8452 136.183 37.0719 133.216 32.4074C132.622 31.4739 132.257 30.478 131.867 29.4226C131.514 28.4607 131.147 27.4677 130.59 26.4718C129.56 24.6304 127.405 24.4573 124.424 24.219C123.446 24.1424 122.335 24.0516 121.124 23.8984L120.889 23.8672C118.264 23.5295 116.944 23.3621 114.41 22.5535C112.324 21.8868 110.631 20.7263 109.991 19.5261C109.423 18.4593 108.99 14.7964 108.849 12.7365C108.849 12.6968 108.841 12.6571 108.835 12.6174C108.296 9.54744 105.923 7.14143 102.712 6.22782C103.822 4.71839 105.598 3.68279 107.475 3.46148C107.742 3.43027 108.014 3.41608 108.284 3.41892C108.465 3.41892 108.646 3.43027 108.824 3.44729C111.882 3.74804 114.247 5.68307 114.729 8.26499C114.786 9.09631 115.176 14.1098 116.126 15.8973C117.05 17.628 119.196 19.1715 121.87 20.0283C124.605 20.9022 126.08 21.0923 128.76 21.4328L128.995 21.464C130.263 21.6257 131.402 21.7165 132.407 21.7988C134.903 21.9974 136.335 22.1478 136.748 22.8855C137.218 23.7282 137.537 24.5964 137.875 25.5156C138.289 26.6364 138.713 27.794 139.436 28.9317C142.621 33.9395 145.011 35.9398 149.16 38.5217C150.894 39.5999 152.833 40.5986 155.286 40.5986H164.173L164.701 41.22C166.144 42.9223 166.878 45.0928 166.715 47.1754C166.557 49.1785 165.55 51.105 164.061 52.5066L166.462 53.3124C167.897 51.647 168.83 49.5559 169.005 47.3513C169.214 44.6814 168.287 41.9151 166.46 39.7616L165.587 38.7345L165.582 38.7373ZM91.2662 2.26982C94.1298 2.26982 96.9676 3.71967 98.7351 5.94977C96.3449 6.32429 94.0982 7.67767 92.6693 9.61269C90.8358 7.07333 87.9694 5.31706 84.8504 4.82905C86.5892 3.24868 88.9134 2.26982 91.2605 2.26982L91.2662 2.26982ZM68.7364 7.01942C68.9802 6.79528 69.2385 6.58816 69.5139 6.4009C70.1796 5.9441 70.9199 5.61213 71.6975 5.39934C72.4751 5.18654 73.2871 5.08724 74.102 5.10142C75.3817 5.12696 76.6585 5.42771 77.7977 5.98666C75.8723 6.96835 74.211 8.45509 73.0776 10.2965C71.686 8.99133 69.9214 8.12596 68.0535 7.73725C68.2658 7.4819 68.4925 7.24357 68.7364 7.01942ZM160.552 72.2853C163.275 73.7295 164.996 76.8675 164.741 79.9119C164.485 82.9563 162.259 85.7681 159.332 86.7469C158.973 86.8661 158.695 87.1555 158.595 87.5187C158.491 87.8818 158.578 88.2677 158.824 88.5571L159.433 89.2664C161.412 92.6513 160.316 97.5342 157.06 99.7615C156.17 100.369 155.146 100.757 154.081 100.939C154.888 98.323 154.701 95.4006 153.344 92.9719C156.385 91.3688 158.58 88.1939 158.867 84.7892C159.131 81.6455 157.76 78.428 155.398 76.3171C157.438 75.2928 159.083 73.5082 159.961 71.4171C160.004 71.7803 160.219 72.1094 160.555 72.2881L160.552 72.2853ZM106.557 12.9578C106.614 13.7892 107.004 18.8026 107.954 20.5901C108.878 22.3209 111.024 23.8643 113.699 24.7212C116.433 25.5951 117.908 25.7852 120.588 26.1256L120.823 26.1569C122.091 26.3186 123.23 26.4094 124.235 26.4917C126.731 26.6903 128.163 26.8406 128.576 27.5783C129.047 28.421 129.365 29.2892 129.704 30.2085C130.117 31.3292 130.541 32.4868 131.265 33.6246C134.449 38.6324 136.84 40.6326 140.989 43.2146C142.722 44.2927 144.661 45.2915 147.115 45.2915H156.001L156.529 45.9128C157.734 47.3343 158.443 49.0792 158.549 50.8298C158.569 51.176 158.569 51.525 158.543 51.8683C158.348 54.3452 156.856 56.703 154.756 58.0961C154.116 58.5217 153.421 58.8593 152.69 59.0806C152.188 59.231 151.855 59.6991 151.878 60.2155C151.901 60.7319 152.277 61.1689 152.787 61.2767C155.878 61.9179 158.374 64.9793 158.357 68.1003C158.339 71.2213 155.803 74.2544 152.707 74.8587C152.231 74.9523 151.866 75.3297 151.794 75.8035C151.723 76.2774 151.961 76.7455 152.386 76.9725C155.109 78.4167 156.83 81.5547 156.575 84.5991C156.319 87.6435 154.093 90.4552 151.166 91.4341C150.807 91.5533 150.529 91.8427 150.429 92.2058C150.325 92.569 150.411 92.9549 150.658 93.2443L151.267 93.9536C152.495 96.056 152.538 98.7372 151.614 100.999C151.301 101.762 150.879 102.477 150.354 103.107C149.932 103.615 149.444 104.068 148.894 104.446C147.559 105.357 145.935 105.777 144.306 105.745C143.026 105.72 141.749 105.419 140.61 104.86C140.208 104.664 139.827 104.435 139.468 104.176C139.109 103.918 138.774 103.629 138.466 103.308C138.329 103.166 138.197 103.019 138.071 102.863C137.855 102.596 137.531 102.443 137.19 102.434C137.141 102.434 137.092 102.434 137.043 102.44L136.61 102.488C136.211 102.534 135.864 102.783 135.698 103.144C135.58 103.399 135.445 103.646 135.302 103.887C134.837 104.676 134.243 105.391 133.557 106.015C131.818 107.595 129.494 108.574 127.147 108.574H127.141C125.52 108.574 123.908 108.106 122.49 107.297C122.355 107.221 122.22 107.138 122.088 107.056C121.299 106.557 120.579 105.947 119.968 105.249C119.865 105.132 119.767 105.013 119.672 104.894C119.245 104.358 118.881 103.773 118.594 103.155C118.513 102.985 118.393 102.843 118.249 102.732C118.051 102.582 117.81 102.494 117.552 102.494C117.541 102.494 117.529 102.494 117.518 102.494C117.357 102.499 117.205 102.536 117.067 102.602C116.872 102.692 116.703 102.837 116.585 103.019C116.545 103.081 116.513 103.146 116.485 103.214C116.29 103.714 116.026 104.182 115.707 104.61C115.274 105.198 114.74 105.711 114.138 106.137C112.975 106.957 111.564 107.434 110.138 107.419C109.957 107.419 109.776 107.408 109.598 107.391C109.452 107.377 109.306 107.357 109.162 107.337C107.004 107.008 105.24 105.847 104.313 104.236C104.086 103.839 103.906 103.419 103.785 102.973C103.745 102.826 103.71 102.675 103.685 102.522C103.653 102.343 103.578 102.179 103.472 102.043C103.277 101.782 102.973 101.609 102.629 101.586C102.264 101.563 101.92 101.716 101.69 101.977C101.59 102.094 101.507 102.227 101.458 102.38C101.312 102.846 101.102 103.283 100.844 103.685C100.758 103.819 100.666 103.952 100.569 104.08C99.329 105.714 97.2172 106.73 94.8385 106.755C94.6291 106.755 94.4196 106.753 94.2073 106.738C94.1212 106.733 94.0351 106.721 93.9491 106.713C93.556 106.676 93.1686 106.614 92.7898 106.523C92.4111 106.432 92.0381 106.316 91.6794 106.168C91.3351 106.029 91.008 105.87 90.701 105.694C89.7799 105.161 89.031 104.463 88.4945 103.646C88.3395 103.41 88.2047 103.161 88.0842 102.905C87.8804 102.465 87.7312 102.003 87.6423 101.515C87.6423 101.509 87.6394 101.504 87.6394 101.498C87.539 100.99 87.1086 100.613 86.5835 100.581C86.0613 100.55 85.5735 100.879 85.4157 101.379C85.3956 101.441 85.3698 101.504 85.3468 101.566C85.0828 102.321 84.6783 103.013 84.1532 103.62C82.8333 105.149 80.7789 106.154 78.406 106.33C78.3084 106.335 78.2108 106.341 78.1133 106.341C77.8263 106.341 77.5308 106.316 77.2295 106.265C74.3143 105.765 70.8424 102.948 69.6287 100.462C69.6287 100.462 69.6287 100.459 69.6258 100.457C69.4594 100.113 69.1266 99.875 68.745 99.8239C68.6962 99.8182 68.6474 99.8154 68.6015 99.8154C68.2801 99.8154 67.9702 99.9459 67.7493 100.181C67.7407 100.19 67.7321 100.196 67.7263 100.207C66.306 101.824 64.4037 102.775 62.3751 102.885C62.2431 102.894 62.1111 102.897 61.9791 102.897C61.5831 102.897 61.19 102.865 60.7998 102.806C60.1514 102.704 59.5144 102.517 58.9032 102.253C58.5359 102.094 58.1773 101.906 57.8301 101.691C57.4829 101.475 57.1443 101.231 56.8229 100.962C56.7139 100.871 56.6077 100.78 56.5045 100.684C53.3281 97.713 52.8461 93.6841 55.2793 90.4127C55.5318 90.0694 56.1974 89.1643 55.6609 88.279C55.3825 87.7995 54.8948 87.564 54.407 87.3825C54.3926 87.3768 54.3812 87.3739 54.3668 87.3683C54.2807 87.3399 54.1975 87.3087 54.1143 87.2775C51.7959 86.3951 50.2637 84.1934 50.0141 81.393C49.753 78.3713 51.5348 75.2616 54.45 73.6557C54.7743 73.477 54.9923 73.1535 55.0325 72.7875C55.0727 72.4215 54.9321 72.0612 54.6537 71.8172C51.9537 69.4452 50.6051 65.7198 51.3024 62.5449C51.9308 59.685 52.7916 58.1642 53.9881 57.2449C54.6337 56.7512 55.3739 56.4278 56.2319 56.1696C56.6594 56.0391 56.9693 55.6787 57.0324 55.2418C57.0955 54.8048 56.8947 54.3736 56.5188 54.1324C54.4672 52.8159 52.9551 50.6908 52.3439 48.4607C52.0972 47.5584 51.9939 46.6392 52.0685 45.7511C52.1747 44.4828 52.5304 43.2713 53.0871 42.1875C53.2736 41.8271 53.4802 41.4782 53.7069 41.149C53.8216 40.9845 53.9393 40.8227 54.0627 40.6667C54.3094 40.3546 54.5763 40.0595 54.8603 39.7843C55.0038 39.6481 55.1501 39.5148 55.2993 39.3871C55.4514 39.2594 55.6064 39.1402 55.7642 39.0239C56.2405 38.6778 56.7541 38.3855 57.2964 38.1529C57.6608 37.9968 57.919 37.6649 57.9764 37.2761C58.0338 36.8874 57.8846 36.4959 57.5804 36.2434C57.1902 35.9199 56.8344 35.5596 56.5131 35.1737C55.1214 33.4941 54.4012 31.2838 54.5878 29.1133C54.7771 26.9144 55.8101 25.1695 57.7325 23.8019C58.008 23.6061 58.3006 23.4189 58.6105 23.2401C58.8745 23.0869 59.0668 22.8372 59.1442 22.5422C59.2217 22.2471 59.1758 21.9378 59.018 21.6768C58.9548 21.5718 58.8946 21.464 58.8343 21.3533C58.7196 21.1349 58.6163 20.9136 58.5245 20.6838C58.4785 20.5703 58.4355 20.4539 58.3953 20.3404C58.2748 19.9915 58.183 19.6368 58.117 19.2736C58.0941 19.1516 58.074 19.0325 58.0596 18.9105C58.0453 18.7884 58.0281 18.6664 58.0166 18.5444C57.9936 18.3004 57.9822 18.0536 57.9822 17.8068C57.9822 17.6819 57.9822 17.5599 57.9908 17.4351C58.0022 17.1882 58.0223 16.9414 58.0568 16.6945C58.1227 16.2037 58.2289 15.7157 58.3752 15.2419C58.4126 15.1227 58.4527 15.0064 58.4929 14.89C58.5761 14.6574 58.6708 14.4276 58.7741 14.2034C58.929 13.8658 59.1069 13.5395 59.3078 13.2274C59.8386 12.3961 60.5215 11.6669 61.3421 11.1051C61.454 11.0285 61.5659 10.9576 61.6807 10.8866C62.2574 10.5405 62.8801 10.2795 63.5285 10.1007C63.7868 10.0298 64.0508 9.97019 64.3176 9.9248C64.8484 9.834 65.3879 9.79428 65.9273 9.80279C66.2142 9.80847 66.4983 9.82833 66.7823 9.86238C68.8655 10.1035 70.8654 11.0739 72.1623 12.6855C72.3775 12.9522 72.7018 13.1082 73.0432 13.1139C73.092 13.1139 73.1408 13.1139 73.1895 13.1054L73.6228 13.0571C74.0216 13.0118 74.3688 12.7621 74.5352 12.4017C74.5984 12.2627 74.6672 12.1237 74.739 11.9903C74.8824 11.718 75.0431 11.4569 75.2153 11.2016C75.3874 10.9462 75.5739 10.6994 75.7719 10.4639C76.1679 9.99005 76.6126 9.55595 77.0975 9.1644C77.944 8.48062 78.9052 7.93019 79.9296 7.55567C80.5608 7.32301 81.2179 7.15278 81.8807 7.05914C82.2795 7.0024 82.6812 6.97403 83.0829 6.97403H83.0887C83.0887 6.97403 83.0915 6.97403 83.0944 6.97403C86.6438 6.97403 90.1558 9.20413 91.6392 12.3932C91.8315 12.8075 92.2533 13.0713 92.7152 13.0543C93.1772 13.0401 93.5846 12.7564 93.7511 12.3308C94.0581 11.5506 94.5286 10.8441 95.114 10.2426C96.167 9.16157 97.5873 8.4182 99.088 8.19689C99.4208 8.14866 99.7594 8.12312 100.095 8.12596C100.112 8.12596 100.127 8.12596 100.144 8.12596C100.307 8.1288 100.471 8.13731 100.637 8.1515C100.873 8.1742 101.105 8.21108 101.332 8.25364C104.049 8.75867 106.098 10.5859 106.542 12.9692L106.557 12.9578Z" fill="#603813"/>
<path d="M138.943 64.2955C139.227 64.2955 139.525 64.2615 139.832 64.1849C140.771 63.9522 141.64 63.1351 141.944 62.1931C142.179 61.4639 142.056 60.7688 141.603 60.2467C141.158 59.7048 140.509 59.336 139.824 59.2338C139.514 59.1884 139.218 59.3984 139.169 59.7105C139.141 59.8921 139.207 60.068 139.327 60.19C139.41 60.2751 139.522 60.3375 139.652 60.3574C140.053 60.417 140.449 60.644 140.722 60.9759C140.92 61.2057 140.963 61.5008 140.851 61.8498C140.667 62.4173 140.111 62.9478 139.554 63.084C138.329 63.3848 137.342 62.7492 137.127 61.986C136.929 61.2795 137.445 60.6638 138.512 60.3375C138.662 60.2921 138.779 60.19 138.848 60.0652C138.92 59.9346 138.94 59.7786 138.891 59.6282C138.796 59.3275 138.475 59.1601 138.174 59.2537C136.131 59.8779 135.738 61.2795 136.022 62.2896C136.323 63.3564 137.468 64.2927 138.946 64.2927L138.943 64.2955Z" fill="#603813"/>
<path d="M70.9916 61.166C71.9299 60.9334 72.7993 60.1162 73.1035 59.1743C73.3387 58.4451 73.2154 57.7499 72.762 57.2279C72.3173 56.686 71.6688 56.3171 70.983 56.215C70.6731 56.1696 70.3776 56.3795 70.3288 56.6916C70.3001 56.8732 70.3661 57.0491 70.4866 57.1711C70.5698 57.2563 70.6817 57.3187 70.8109 57.3357C71.2126 57.3953 71.6085 57.6223 71.8811 57.9542C72.0791 58.184 72.1221 58.4791 72.0102 58.8281C71.8266 59.3956 71.27 59.9261 70.7133 60.0652C69.4881 60.3659 68.5011 59.7304 68.2859 58.9671C68.0879 58.2606 68.6044 57.645 69.6717 57.3187C69.821 57.2733 69.9386 57.1711 70.0075 57.0463C70.0792 56.9158 70.0993 56.7597 70.0505 56.6094C69.9558 56.3086 69.6345 56.1412 69.3332 56.2348C67.2902 56.859 66.8971 58.2606 67.1812 59.2707C67.4825 60.3375 68.6273 61.2738 70.105 61.2738C70.3891 61.2738 70.6875 61.2398 70.9945 61.1632L70.9916 61.166Z" fill="#603813"/>
<path d="M73.2727 27.8961C72.9629 27.8507 72.6673 28.0607 72.6185 28.3728C72.5898 28.5544 72.6558 28.7303 72.7764 28.8523C72.8596 28.9374 72.9715 28.9998 73.1006 29.0168C73.5023 29.0764 73.8983 29.3034 74.1708 29.6354C74.3688 29.8652 74.4119 30.1603 74.3 30.5092C74.1163 31.0767 73.5597 31.6073 73.003 31.7463C71.7778 32.047 70.7908 31.4115 70.5756 30.6483C70.3776 29.9418 70.8941 29.3261 71.9615 28.9998C72.1107 28.9544 72.2283 28.8523 72.2972 28.7274C72.3689 28.5969 72.389 28.4409 72.3402 28.2905C72.2455 27.9897 71.9242 27.8223 71.6229 27.916C69.5799 28.5402 69.1868 29.9418 69.4709 30.9519C69.7722 32.0187 70.917 32.955 72.3947 32.955C72.6788 32.955 72.9772 32.9209 73.2842 32.8443C74.2225 32.6117 75.0919 31.7945 75.396 30.8526C75.6313 30.1234 75.5079 29.4282 75.0546 28.9062C74.6098 28.3643 73.9614 27.9954 73.2756 27.8933L73.2727 27.8961Z" fill="#603813"/>
<path d="M99.9459 30.9547C100.247 32.0215 101.392 32.9578 102.87 32.9578C103.154 32.9578 103.452 32.9238 103.759 32.8472C104.698 32.6145 105.567 31.7974 105.871 30.8554C106.106 30.1262 105.983 29.4311 105.53 28.909C105.085 28.3671 104.436 27.9983 103.751 27.8961C103.441 27.8507 103.145 28.0607 103.096 28.3728C103.068 28.5544 103.134 28.7303 103.254 28.8523C103.337 28.9374 103.449 28.9998 103.578 29.0168C103.98 29.0764 104.376 29.3034 104.649 29.6354C104.847 29.8652 104.89 30.1603 104.778 30.5092C104.594 31.0767 104.038 31.6073 103.481 31.7435C102.256 32.0442 101.269 31.4087 101.053 30.6454C100.855 29.9389 101.372 29.3233 102.439 28.997C102.589 28.9516 102.706 28.8494 102.775 28.7246C102.847 28.5941 102.867 28.438 102.818 28.2877C102.723 27.9869 102.402 27.8195 102.101 27.9131C100.058 28.5373 99.6647 29.9389 99.9488 30.949L99.9459 30.9547Z" fill="#603813"/>
<path d="M71.7434 83.2798C71.4335 83.2315 71.138 83.4443 71.0892 83.7564C71.0605 83.9408 71.1265 84.1139 71.247 84.2359C71.3302 84.321 71.4421 84.3835 71.5684 84.4005C71.9701 84.4601 72.366 84.687 72.6386 85.019C72.8366 85.2488 72.8797 85.5439 72.7677 85.8929C72.5841 86.4604 72.0275 86.9909 71.4708 87.1271C70.2456 87.4279 69.2586 86.7923 69.0434 86.0291C68.8454 85.3226 69.3619 84.7069 70.4293 84.3806C70.5785 84.3352 70.6961 84.2331 70.765 84.1082C70.8367 83.9777 70.8568 83.8217 70.808 83.6713C70.7133 83.3706 70.392 83.2032 70.0907 83.2968C68.0477 83.921 67.6546 85.3226 67.9387 86.3327C68.24 87.3995 69.3848 88.3358 70.8625 88.3358C71.1466 88.3358 71.445 88.3018 71.752 88.2251C72.6903 87.9925 73.5597 87.1753 73.8638 86.2334C74.0991 85.5042 73.9757 84.8091 73.5224 84.287C73.0776 83.7451 72.4292 83.3762 71.7434 83.2741V83.2798Z" fill="#603813"/>
<path d="M136.025 86.3525C134.957 86.6788 134.441 87.2945 134.639 88.001C134.854 88.7642 135.841 89.3998 137.066 89.099C137.623 88.9628 138.18 88.4323 138.363 87.8648C138.478 87.5158 138.432 87.2207 138.234 86.9909C137.962 86.659 137.566 86.4348 137.164 86.3724C137.035 86.3525 136.926 86.2929 136.84 86.2078C136.679 86.1681 136.518 86.1284 136.358 86.0858C136.289 86.2107 136.171 86.3128 136.022 86.3582L136.025 86.3525Z" fill="#A8713F"/>
<path d="M136.455 90.3105C136.739 90.3105 137.038 90.2765 137.345 90.1999C138.283 89.9672 139.152 89.1501 139.456 88.2081C139.692 87.4789 139.568 86.7838 139.115 86.2617C138.67 85.7198 138.022 85.351 137.336 85.2488C137.026 85.2034 136.731 85.4134 136.682 85.7255C136.653 85.9071 136.719 86.083 136.84 86.205C136.923 86.2901 137.035 86.3525 137.164 86.3696C137.566 86.4291 137.962 86.6561 138.234 86.9881C138.432 87.2179 138.475 87.513 138.363 87.862C138.18 88.4294 137.623 88.96 137.066 89.0962C135.841 89.3969 134.854 88.7614 134.639 87.9982C134.441 87.2917 134.957 86.676 136.025 86.3497C136.174 86.3043 136.292 86.2022 136.36 86.0773C136.432 85.9468 136.452 85.7907 136.403 85.6404C136.309 85.3396 135.987 85.1722 135.686 85.2659C133.643 85.8901 133.25 87.2917 133.534 88.3018C133.835 89.3686 134.98 90.3049 136.458 90.3049L136.455 90.3105Z" fill="#603813"/>
</svg>
