<svg width="38" height="36" viewBox="0 0 38 36" fill="none" xmlns="http://www.w3.org/2000/svg">
<g clip-path="url(#clip0_271_539)">
<path d="M33.9184 21.0549C34.7782 20.7185 35.4134 19.8373 35.4635 18.91C35.5364 17.5472 35.4191 16.5021 33.2188 15.467C33.2102 15.4627 33.2016 15.4584 33.1944 15.4541C32.5649 15.1191 31.9869 15.0587 31.4276 15.0012C30.5835 14.9136 29.6278 14.8144 29.1227 13.5723C29.0026 13.2747 28.9768 12.9211 28.9496 12.5473C28.8981 11.8271 28.8452 11.0838 28.1857 10.6281C27.2758 9.99989 26.7636 10.0746 26.1169 10.171C25.858 10.2098 25.589 10.2486 25.2843 10.2486H25.2828C23.7263 10.2486 22.6304 9.6103 21.9322 8.30066C21.4572 7.40936 21.214 5.03303 21.1811 4.69376C20.9822 3.38412 19.7061 2.27431 18.387 2.26855H18.3756C17.8963 2.26855 17.4213 2.41519 17.0007 2.66389C16.9678 2.68402 16.9349 2.70414 16.902 2.72571C16.2153 3.16705 15.6916 3.8844 15.5672 4.67938C15.5257 4.94821 15.3025 5.14947 15.0321 5.16385C14.7588 5.17823 14.5185 5.0014 14.4498 4.73833C14.1122 3.47038 12.7273 2.13342 11.4554 2.31024C11.1464 2.35337 10.8517 2.45975 10.5798 2.6107C10.3781 2.72427 10.1907 2.86371 10.0205 3.02329C9.46392 3.54657 9.10196 4.28692 9.11198 5.04741C9.11484 5.25011 9.0104 5.43843 8.84015 5.54481L8.76862 5.58938C8.55402 5.72307 8.27647 5.69719 8.08762 5.529C7.86157 5.3263 7.63267 5.09053 7.38945 4.84039C6.74994 4.18198 5.95592 3.36399 5.29066 3.36399C5.2878 3.36399 5.28351 3.36399 5.28065 3.36399C4.82283 3.36974 4.37074 3.5135 3.96586 3.75645C3.31777 4.14604 2.79558 4.79295 2.57954 5.552C2.209 6.85589 2.43075 8.17703 3.15753 9.03958C3.18472 9.05539 3.21047 9.07264 3.23479 9.09277C3.3564 9.19053 3.43795 9.33716 3.44939 9.50104C3.46656 9.75693 3.31348 9.99413 3.07313 10.0818C2.96726 10.1206 2.86282 10.1681 2.76124 10.2213C2.00585 10.618 1.42499 11.39 1.35775 12.1304C1.28193 12.9685 1.83846 13.936 2.68112 14.4291C2.80845 14.5038 2.89858 14.6232 2.93864 14.7597C2.95867 14.8273 2.96869 14.8992 2.96296 14.9711C2.95152 15.1163 2.88571 15.2471 2.78413 15.3434C2.7312 15.3937 2.66968 15.434 2.59957 15.4613C1.54517 15.8739 1.36777 17.0987 1.34058 17.6061C1.29051 18.532 1.82844 19.4779 2.64679 19.9048C2.75122 19.9595 2.83277 20.0429 2.88571 20.1435C2.93292 20.2312 2.95867 20.3318 2.95438 20.4353C2.94723 20.6567 2.81274 20.8551 2.61102 20.9428C2.61102 20.9428 2.60959 20.9428 2.60816 20.9442C1.66964 21.3554 1.0845 22.4077 1.1546 23.5635C1.19466 24.2176 1.50654 24.8688 2.013 25.3519C2.31773 25.6437 2.67969 25.8564 3.05882 25.9686C3.26913 26.0318 3.42507 26.2087 3.46084 26.4257L3.52092 26.7866C3.54525 26.9389 3.50948 27.0942 3.41935 27.2193C2.48369 28.5102 2.63534 30.4797 3.75698 31.6111C4.78707 32.6505 6.60402 32.6807 7.98318 31.6801C8.09191 31.601 8.22496 31.5637 8.35802 31.5723L8.52397 31.5838C8.68707 31.5953 8.83729 31.6758 8.93744 31.8066C9.03758 31.9374 9.07764 32.1042 9.04617 32.2652C8.77863 33.674 9.95894 34.4733 11.052 34.7307C11.1292 34.7493 11.2079 34.7623 11.2866 34.7723C12.1507 34.8773 12.9962 34.6617 13.5499 34.193C13.733 34.0377 13.8761 33.8624 13.982 33.6668C14.1079 33.4354 14.1808 33.1766 14.1951 32.892C14.2109 32.5973 14.4455 32.3615 14.7402 32.3471C14.7488 32.3471 14.7588 32.3471 14.7674 32.3471C15.0493 32.3471 15.2925 32.5556 15.334 32.8388C15.354 32.9711 15.394 33.1019 15.4541 33.2298C15.8676 34.1168 17.1652 34.8414 18.1295 34.8471C18.1395 34.8471 18.1509 34.8471 18.161 34.8471C18.9865 34.8471 20.2898 34.6775 20.7805 33.6913C20.8592 33.5346 20.9179 33.3578 20.9493 33.1565C20.9908 32.8877 21.214 32.6864 21.4844 32.672C21.7548 32.6577 21.998 32.8345 22.0667 33.0976C22.0867 33.1738 22.1125 33.2471 22.1397 33.3175C22.586 34.4561 23.9337 34.8198 25.0611 34.6631C25.6519 34.5811 26.2442 34.3454 26.6863 33.9572C27.1255 33.572 27.4145 33.0372 27.4059 32.3572C27.4031 32.1516 27.5104 31.9604 27.6864 31.8555C27.8623 31.7505 28.0798 31.7477 28.2586 31.8483L28.7064 32.1013C28.7422 32.1214 28.7765 32.1459 28.8066 32.1732C28.9725 32.3213 29.1371 32.4564 29.3001 32.5786C30.1028 33.1809 30.8782 33.4814 31.6135 33.4742C32.4276 33.4641 33.2288 33.0185 33.7653 32.3443C34.0128 32.0337 34.2031 31.6744 34.3132 31.2862C34.6509 30.0959 34.2774 28.6885 33.3618 27.6994C33.2073 27.5312 33.1644 27.2883 33.2559 27.0784C33.3361 26.8944 33.5035 26.7679 33.698 26.7391C34.4506 26.4099 34.9398 25.2972 35.0214 24.3858C35.1029 23.4873 34.6165 22.5414 33.8411 22.0871C33.6508 21.9764 33.5421 21.7651 33.5593 21.5451C33.5764 21.3252 33.7181 21.134 33.9226 21.0549H33.9184ZM14.0964 22.7642C13.9448 23.24 13.5113 23.6555 13.0435 23.7734C12.8904 23.8122 12.743 23.8295 12.5999 23.8295C11.8632 23.8295 11.2923 23.355 11.1421 22.8145C11.0005 22.3027 11.195 21.5926 12.2151 21.2763C12.3653 21.2289 12.527 21.3137 12.5728 21.4661C12.5971 21.5437 12.5856 21.6228 12.5513 21.6875C12.6314 21.709 12.7115 21.7291 12.7917 21.7493C12.7316 21.6874 12.6987 21.5983 12.713 21.5063C12.7373 21.3496 12.8832 21.2418 13.0392 21.2648C13.3811 21.3166 13.7044 21.5049 13.9262 21.778C14.1522 22.0425 14.2137 22.3962 14.0964 22.7642ZM14.0964 13.9806C13.9448 14.4564 13.5113 14.8719 13.0435 14.9897C12.8904 15.0286 12.743 15.0458 12.5999 15.0458C11.8632 15.0458 11.2923 14.5714 11.1421 14.0309C11.0005 13.5191 11.195 12.8089 12.2151 12.4927C12.3653 12.4452 12.527 12.53 12.5728 12.6824C12.5971 12.76 12.5856 12.8391 12.5513 12.9038C12.6314 12.9254 12.7115 12.9455 12.7917 12.9656C12.7316 12.9038 12.6987 12.8147 12.713 12.7227C12.7373 12.566 12.8832 12.4582 13.0392 12.4812C13.3811 12.5329 13.7044 12.7212 13.9262 12.9944C14.1522 13.2589 14.2137 13.6125 14.0964 13.9806ZM21.8192 22.8145C21.6775 22.3027 21.8721 21.5926 22.8922 21.2763C23.0424 21.2289 23.2041 21.3137 23.2498 21.4661C23.2742 21.5437 23.2627 21.6228 23.2284 21.6875C23.3085 21.709 23.3886 21.7291 23.4687 21.7493C23.4087 21.6874 23.3757 21.5983 23.3901 21.5063C23.4144 21.3496 23.5603 21.2418 23.7162 21.2648C24.0582 21.3166 24.3815 21.5049 24.6033 21.778C24.8293 22.0425 24.8908 22.3962 24.7735 22.7642C24.6219 23.24 24.1884 23.6555 23.7205 23.7734C23.5675 23.8122 23.4201 23.8295 23.277 23.8295C22.5402 23.8295 21.9694 23.355 21.8192 22.8145Z" fill="#EAC69B"/>
<path d="M12.3839 13.0403C11.8517 13.2056 11.5941 13.5176 11.6929 13.8755C11.8002 14.2622 12.2923 14.5843 12.9032 14.4319C13.1808 14.3629 13.4583 14.094 13.5499 13.8065C13.6071 13.6297 13.5842 13.4802 13.4855 13.3637C13.3496 13.1955 13.1521 13.082 12.9518 13.0503C12.8875 13.0403 12.8331 13.0101 12.7902 12.967C12.7101 12.9468 12.6299 12.9267 12.5498 12.9052C12.5155 12.9684 12.4568 13.0202 12.3824 13.0432L12.3839 13.0403Z" fill="#A8713F"/>
<path d="M12.3839 21.8254C11.8517 21.9908 11.5941 22.3027 11.6929 22.6607C11.8002 23.0474 12.2923 23.3694 12.9032 23.217C13.1808 23.148 13.4583 22.8792 13.5499 22.5917C13.6071 22.4148 13.5842 22.2653 13.4855 22.1489C13.3496 21.9807 13.1521 21.8671 12.9518 21.8355C12.8875 21.8254 12.8331 21.7953 12.7902 21.7521C12.7101 21.732 12.6299 21.7119 12.5498 21.6903C12.5155 21.7536 12.4568 21.8053 12.3824 21.8283L12.3839 21.8254Z" fill="#A8713F"/>
<path d="M23.0609 21.8254C22.5287 21.9908 22.2711 22.3027 22.3699 22.6607C22.4772 23.0474 22.9693 23.3694 23.5802 23.217C23.8578 23.148 24.1353 22.8792 24.2269 22.5917C24.2841 22.4148 24.2612 22.2653 24.1625 22.1489C24.0266 21.9807 23.8291 21.8671 23.6288 21.8355C23.5645 21.8254 23.5101 21.7953 23.4672 21.7521C23.3871 21.732 23.3069 21.7119 23.2268 21.6903C23.1925 21.7536 23.1338 21.8053 23.0594 21.8283L23.0609 21.8254Z" fill="#A8713F"/>
<path d="M37.9856 17.2482C38.0672 15.7387 37.884 14.4161 35.4118 13.2531C33.6521 12.3187 32.2415 13.2373 31.6034 11.6632C31.3201 10.9645 31.7364 9.34146 30.4617 8.46165C28.9838 7.44097 28.2528 7.9815 27.2341 7.9815C25.5874 7.9815 24.8292 7.74142 24.3871 6.91194C23.945 6.08245 23.6989 2.93127 23.6989 2.93127C23.4629 1.32548 21.9535 0.00865557 20.3397 3.00639e-05C19.3783 -0.00428269 18.4527 0.455744 17.806 1.16591C17.3024 1.24642 16.8174 1.43043 16.3796 1.69638C15.6643 0.665632 14.474 -0.112102 13.3252 0.0474704C12.5497 0.155289 11.843 0.577939 11.3294 1.16879C11.3179 1.16879 11.3079 1.17022 11.2965 1.17166C10.5053 1.28092 9.7814 1.66188 9.21057 2.20672C8.59395 1.61156 7.92296 1.08828 7.21908 1.09691C6.29057 1.10841 5.41357 1.56556 4.78694 2.25704C3.27043 2.48274 1.91988 3.67018 1.47494 5.23715C1.05003 6.73511 1.23459 8.22301 1.96137 9.35296C0.994235 9.95962 0.308945 10.976 0.214521 12.0283C0.124389 13.0332 0.580772 14.1085 1.37336 14.8718C0.675196 15.4627 0.25601 16.3942 0.194492 17.5458C0.137265 18.6124 0.583633 19.6648 1.3519 20.3835C0.449151 21.1325 -0.0701822 22.343 0.0070739 23.6354C0.0643007 24.577 0.506377 25.5071 1.22028 26.1871C1.53074 26.4832 1.88411 26.7233 2.26038 26.8958C1.26892 28.6137 1.53789 31.0087 2.93994 32.4248C4.17318 33.6697 6.17898 33.8968 7.88434 33.0717C8.0646 34.4029 9.13331 35.4652 10.7857 35.8534C10.903 35.8807 11.0232 35.9023 11.1434 35.9166C12.3151 36.0604 13.4883 35.7456 14.2809 35.0771C14.5155 34.8787 14.7129 34.6559 14.8703 34.4115C15.63 35.3215 16.9004 35.9928 18.1165 35.9986C18.1294 35.9986 18.1408 35.9986 18.1537 35.9986C19.726 35.9986 20.9235 35.4883 21.5715 34.584C22.4314 35.6004 23.9035 35.9828 25.2112 35.8016C26.742 35.5889 27.9051 34.6933 28.3472 33.4857C28.3915 33.4569 28.4345 33.4296 28.4774 33.398C29.5304 34.2246 30.5848 34.6343 31.622 34.6228C33.2716 34.6013 34.8152 33.4052 35.356 31.7577C36.0442 31.2804 36.5778 30.5602 36.8082 29.7494C37.1973 28.3823 36.7767 26.8512 35.8596 25.7659C35.8882 25.6897 35.914 25.6149 35.9383 25.5387C36.8883 25.0758 37.4405 23.8036 37.5364 22.7426C37.6279 21.7334 37.1558 20.6984 36.3561 20.086C36.4076 19.958 36.4505 19.8258 36.4877 19.6921C37.3389 19.186 37.9312 18.243 37.9842 17.2453L37.9856 17.2482ZM34.3088 31.2876C34.1986 31.6758 34.0069 32.0352 33.7608 32.3457C33.2243 33.0199 32.4232 33.4656 31.6091 33.4756C30.8738 33.4843 30.0983 33.1838 29.2957 32.58C29.1326 32.4564 28.9667 32.3227 28.8021 32.1746C28.7707 32.1473 28.7378 32.1229 28.702 32.1027L28.2542 31.8497C28.0754 31.7491 27.8579 31.752 27.6819 31.8569C27.506 31.9619 27.4001 32.153 27.4015 32.3586C27.4101 33.04 27.1197 33.5734 26.6819 33.9587C26.2412 34.3468 25.649 34.5826 25.0567 34.6645C23.9293 34.8212 22.5802 34.4575 22.1352 33.3189C22.108 33.2485 22.0823 33.1752 22.0623 33.099C21.9922 32.8359 21.7504 32.6591 21.48 32.6735C21.2096 32.6878 20.9864 32.8905 20.9449 33.1579C20.9134 33.3592 20.8533 33.536 20.7761 33.6927C20.2854 34.6803 18.982 34.8485 18.1565 34.8485C18.1465 34.8485 18.1351 34.8485 18.1251 34.8485C17.1594 34.8442 15.8632 34.1197 15.4497 33.2312C15.3896 33.1033 15.3496 32.9725 15.3295 32.8402C15.288 32.557 15.0463 32.3486 14.763 32.3486C14.7544 32.3486 14.7444 32.3486 14.7358 32.3486C14.4425 32.3629 14.2065 32.5973 14.1907 32.8934C14.1764 33.178 14.1035 33.4368 13.9776 33.6683C13.8717 33.8638 13.7286 34.0406 13.5455 34.1944C12.9918 34.6616 12.1463 34.8787 11.2822 34.7738C11.2035 34.7637 11.1248 34.7508 11.0475 34.7321C9.95451 34.4748 8.77421 33.6755 9.04175 32.2666C9.07179 32.1056 9.03316 31.9374 8.93302 31.808C8.83287 31.6772 8.68265 31.5967 8.51955 31.5852L8.3536 31.5737C8.22054 31.5636 8.08749 31.6025 7.97876 31.6815C6.5996 32.6806 4.78265 32.6519 3.75256 31.6125C2.63092 30.4811 2.4807 28.5117 3.41493 27.2207C3.50506 27.0956 3.54226 26.9404 3.5165 26.788L3.45642 26.4272C3.42065 26.2101 3.26471 26.0318 3.0544 25.97C2.67527 25.8579 2.31331 25.6437 2.00858 25.3533C1.50355 24.8717 1.19024 24.219 1.15018 23.5649C1.08008 22.4091 1.66379 21.3582 2.60374 20.9456C2.60374 20.9456 2.60517 20.9456 2.6066 20.9442C2.80975 20.8565 2.94281 20.6581 2.94996 20.4367C2.95282 20.3332 2.9285 20.2326 2.88129 20.1449C2.82835 20.0457 2.7468 19.9609 2.64237 19.9063C1.82402 19.4793 1.28609 18.5334 1.33617 17.6076C1.36335 17.1001 1.54075 15.8753 2.59515 15.4627C2.66526 15.4354 2.72678 15.3951 2.77971 15.3448C2.88129 15.2485 2.9471 15.1177 2.95854 14.9725C2.96427 14.8992 2.95425 14.8287 2.93422 14.7612C2.89273 14.6246 2.8026 14.5053 2.6767 14.4305C1.83404 13.9374 1.27751 12.9699 1.35333 12.1318C1.42057 11.3915 2.00143 10.6195 2.75682 10.2227C2.8584 10.1695 2.96141 10.1221 3.06871 10.0832C3.30906 9.99556 3.46214 9.75836 3.44497 9.50246C3.43353 9.33858 3.35198 9.19195 3.23037 9.09419C3.20605 9.0755 3.1803 9.05681 3.15311 9.041C2.42777 8.17845 2.20601 6.85731 2.57512 5.55342C2.79116 4.79438 3.31335 4.14746 3.96144 3.75788C4.36632 3.51492 4.81841 3.37117 5.27623 3.36542C5.27909 3.36542 5.28338 3.36542 5.28624 3.36542C5.9515 3.36542 6.74552 4.1834 7.38503 4.84182C7.62825 5.09196 7.85715 5.32772 8.0832 5.53042C8.27205 5.69862 8.54817 5.72449 8.7642 5.5908L8.83573 5.54623C9.00741 5.43985 9.11042 5.25153 9.10756 5.04883C9.09754 4.28835 9.4595 3.54799 10.016 3.02471C10.1863 2.86514 10.3737 2.72569 10.5754 2.61212C10.8473 2.45974 11.1434 2.35336 11.451 2.31167C12.7243 2.13484 14.1077 3.4718 14.4454 4.73975C14.5155 5.00139 14.7544 5.17965 15.0277 5.16527C15.2981 5.1509 15.5212 4.9482 15.5627 4.68081C15.6872 3.88582 16.2108 3.1699 16.8976 2.72713C16.9305 2.70556 16.9634 2.68544 16.9963 2.66531C17.4169 2.41661 17.8919 2.26998 18.3711 2.26998H18.3826C19.7017 2.27716 20.9778 3.38554 21.1767 4.69518C21.2096 5.03589 21.4542 7.41222 21.9278 8.30208C22.6259 9.61172 23.7218 10.2486 25.2784 10.25H25.2798C25.5846 10.25 25.8535 10.2098 26.1125 10.1724C26.7591 10.0761 27.2713 10.0013 28.1812 10.6295C28.8408 11.0852 28.8937 11.8285 28.9452 12.5487C28.9724 12.9225 28.9967 13.2761 29.1183 13.5737C29.6219 14.8158 30.579 14.915 31.4231 15.0027C31.9825 15.0602 32.5605 15.1205 33.19 15.4555C33.1986 15.4598 33.2072 15.4641 33.2143 15.4684C35.4133 16.5035 35.532 17.5486 35.459 18.9115C35.409 19.8373 34.7738 20.7199 33.9139 21.0563C33.7093 21.1368 33.5677 21.3266 33.5505 21.5466C33.5334 21.7665 33.6435 21.9764 33.8324 22.0885C34.6078 22.5428 35.0928 23.4887 35.0127 24.3872C34.9311 25.2986 34.4418 26.4113 33.6893 26.7405C33.4962 26.7693 33.3274 26.8958 33.2472 27.0798C33.1571 27.2897 33.1986 27.5341 33.3531 27.7009C34.2687 28.6899 34.6421 30.0973 34.3045 31.2876H34.3088Z" fill="#42210B"/>
<path d="M13.0393 12.4798C12.8848 12.4568 12.7374 12.5631 12.7131 12.7213C12.6988 12.8133 12.7317 12.9024 12.7918 12.9642C12.8333 13.0074 12.8891 13.039 12.9535 13.0476C13.1537 13.0778 13.3512 13.1928 13.4871 13.361C13.5858 13.4774 13.6073 13.6269 13.5515 13.8038C13.4599 14.0913 13.1824 14.3601 12.9048 14.4291C12.2939 14.5815 11.8018 14.2595 11.6945 13.8728C11.5957 13.5148 11.8533 13.2029 12.3855 13.0375C12.4599 13.0145 12.5185 12.9628 12.5529 12.8995C12.5886 12.8334 12.5986 12.7543 12.5743 12.6781C12.5271 12.5258 12.3669 12.4409 12.2167 12.4884C11.198 12.8047 11.002 13.5148 11.1437 14.0266C11.2939 14.5671 11.8647 15.0415 12.6015 15.0415C12.7431 15.0415 12.8919 15.0243 13.045 14.9855C13.5128 14.8676 13.9463 14.4536 14.098 13.9763C14.2153 13.6068 14.1538 13.2546 13.9277 12.9901C13.706 12.7155 13.3827 12.5286 13.0407 12.4769L13.0393 12.4798Z" fill="#42210B"/>
<path d="M13.0393 21.2648C12.8848 21.2418 12.7374 21.3482 12.7131 21.5063C12.6988 21.5997 12.7317 21.6874 12.7918 21.7493C12.8333 21.7924 12.8891 21.824 12.9535 21.8326C13.1537 21.8628 13.3512 21.9778 13.4871 22.146C13.5858 22.2625 13.6073 22.412 13.5515 22.5888C13.4599 22.8763 13.1824 23.1452 12.9048 23.2142C12.2939 23.3665 11.8018 23.0445 11.6945 22.6578C11.5957 22.2999 11.8533 21.9879 12.3855 21.8226C12.4599 21.7996 12.5185 21.7478 12.5529 21.6846C12.5886 21.6184 12.5986 21.5394 12.5743 21.4632C12.5271 21.3108 12.3669 21.226 12.2167 21.2734C11.198 21.5897 11.002 22.2999 11.1437 22.8116C11.2939 23.3522 11.8647 23.8266 12.6015 23.8266C12.7431 23.8266 12.8919 23.8093 13.045 23.7705C13.5128 23.6526 13.9463 23.2386 14.098 22.7613C14.2153 22.3919 14.1538 22.0397 13.9277 21.7751C13.706 21.5006 13.3827 21.3137 13.0407 21.2619L13.0393 21.2648Z" fill="#42210B"/>
<path d="M23.7163 21.2648C23.5618 21.2418 23.4144 21.3482 23.3901 21.5063C23.3758 21.5997 23.4087 21.6874 23.4688 21.7493C23.5103 21.7924 23.5661 21.824 23.6305 21.8326C23.8307 21.8628 24.0282 21.9778 24.1641 22.146C24.2628 22.2625 24.2843 22.412 24.2285 22.5888C24.1369 22.8763 23.8594 23.1452 23.5818 23.2142C22.9709 23.3665 22.4788 23.0445 22.3715 22.6578C22.2727 22.2999 22.5303 21.9879 23.0625 21.8226C23.1369 21.7996 23.1955 21.7478 23.2299 21.6846C23.2656 21.6184 23.2756 21.5394 23.2513 21.4632C23.2041 21.3108 23.0439 21.226 22.8937 21.2734C21.875 21.5897 21.679 22.2999 21.8207 22.8116C21.9709 23.3522 22.5417 23.8266 23.2785 23.8266C23.4201 23.8266 23.5689 23.8093 23.722 23.7705C24.1898 23.6526 24.6233 23.2386 24.775 22.7613C24.8923 22.3919 24.8308 22.0397 24.6047 21.7751C24.383 21.5006 24.0597 21.3137 23.7177 21.2619L23.7163 21.2648Z" fill="#42210B"/>
</g>
<defs>
<clipPath id="clip0_271_539">
<rect width="38" height="36" fill="white"/>
</clipPath>
</defs>
</svg>
